<svg width="128" height="128" viewBox="0 0 128 128" fill="none" xmlns="http://www.w3.org/2000/svg">
<path d="M50.352 69.6898C50.8184 61.3695 54.8928 54.0391 61.0396 48.8428C67.0677 43.7388 75.1813 40.6193 84.0341 40.6193C92.8781 40.6193 100.992 43.7388 107.024 48.8428C113.167 54.0391 117.241 61.3696 117.712 69.6811C118.178 78.2302 114.742 86.1721 108.714 92.0593C102.567 98.0476 93.8241 101.805 84.0341 101.805C74.2441 101.805 65.4837 98.0476 59.3412 92.0593C53.3088 86.1721 49.8812 78.2301 50.352 69.6898Z" fill="white"/>
<path d="M66.7266 70.4419C66.9659 66.1727 69.0565 62.4115 72.2105 59.7452C75.3035 57.1263 79.4667 55.5257 84.0091 55.5257C88.547 55.5257 92.7102 57.1263 95.8055 59.7452C98.9572 62.4115 101.048 66.1728 101.289 70.4375C101.529 74.8241 99.7654 78.8991 96.6724 81.9198C93.5184 84.9925 89.0324 86.9205 84.0091 86.9205C78.9858 86.9205 74.4908 84.9925 71.339 81.9198C68.2438 78.8991 66.485 74.824 66.7266 70.4419Z" fill="#265787"/>
<path d="M39.2054 79.0887C39.2347 80.7593 39.7675 84.0059 40.5667 86.5412C42.2465 91.9076 45.0956 96.8721 49.0601 101.247C53.1284 105.745 58.1382 109.357 63.9247 111.922C70.0068 114.615 76.597 115.988 83.4422 115.976C90.2762 115.967 96.8664 114.568 102.949 111.854C108.735 109.264 113.74 105.636 117.802 101.137C121.764 96.7435 124.609 91.7699 126.293 86.4035C127.14 83.692 127.675 80.94 127.889 78.1789C128.099 75.4584 128.011 72.7334 127.625 70.0107C126.871 64.7052 125.035 59.7271 122.209 55.1893C119.624 51.0194 116.291 47.3688 112.329 44.2962L112.338 44.2894L72.3525 13.5876C72.3164 13.5606 72.2871 13.5312 72.2487 13.5064C69.6253 11.4926 65.2138 11.4994 62.3285 13.5177C59.4116 15.5586 59.0774 18.9338 61.6737 21.0627L61.6624 21.074L78.3399 34.6357L27.5084 34.6899H27.4406C23.2391 34.6944 19.2001 37.451 18.4009 40.9345C17.5791 44.4835 20.4328 47.4275 24.8014 47.4433L24.7947 47.4591L50.5592 47.4094L4.58395 82.6987C4.52525 82.7416 4.46203 82.7867 4.40784 82.8296C0.0708545 86.1506 -1.33113 91.6728 1.40066 95.1676C4.17308 98.7212 10.0679 98.7279 14.45 95.1879L39.5418 74.6524C39.5418 74.6524 39.176 77.4248 39.2054 79.0887ZM103.682 88.3721C98.5122 93.6392 91.2741 96.6261 83.4422 96.6419C75.5991 96.6554 68.361 93.6957 63.1909 88.4376C60.6645 85.8752 58.8087 82.9267 57.6641 79.7863C56.542 76.7001 56.1063 73.4243 56.3953 70.1191C56.6685 66.8884 57.6303 63.8067 59.1655 61.0185C60.6736 58.2777 62.7507 55.8011 65.3154 53.706C70.341 49.6107 76.7392 47.3936 83.431 47.3846C90.1295 47.3755 96.5232 49.5723 101.553 53.6541C104.113 55.7401 106.188 58.2077 107.696 60.944C109.238 63.7299 110.193 66.8003 110.478 70.04C110.762 73.3407 110.327 76.6121 109.205 79.7005C108.058 82.85 106.209 85.7984 103.682 88.3721Z" fill="#EA7600"/>
</svg>
