{
	"asset":{
		"generator":"Khronos glTF Blender I/O v3.5.30",
		"version":"2.0"
	},
	"extensionsUsed":[
		"KHR_materials_unlit",
		"KHR_texture_transform"
	],
	"extensionsRequired":[
		"KHR_texture_transform"
	],
	"scene":0,
	"scenes":[
		{
			"name":"Scene",
			"nodes":[
				0
			]
		}
	],
	"nodes":[
		{
			"mesh":0,
			"name":"Caicos",
			"rotation":[
				0.7660444378852844,
				0,
				0,
				0.6427876949310303
			],
			"translation":[
				0,
				0,
				-0.056521814316511154
			]
		}
	],
	"materials":[
		{
			"doubleSided":true,
			"extensions":{
				"KHR_materials_unlit":{}
			},
			"name":"Caicos",
			"pbrMetallicRoughness":{
				"baseColorTexture":{
					"extensions":{
						"KHR_texture_transform":{
							"offset":[
								0.15700000524520874,
								1.9500000178813934
							],
							"scale":[
								0.800000011920929,
								-0.800000011920929
							]
						}
					},
					"index":0,
					"texCoord":0
				},
				"metallicFactor":0,
				"roughnessFactor":0.9
			}
		},
		{
			"doubleSided":true,
			"extensions":{
				"KHR_materials_unlit":{}
			},
			"name":"Caicos infill",
			"pbrMetallicRoughness":{
				"baseColorTexture":{
					"extensions":{
						"KHR_texture_transform":{
							"offset":[
								0.15700000524520874,
								1.9500000178813934
							],
							"scale":[
								0.800000011920929,
								-0.800000011920929
							]
						}
					},
					"index":1,
					"texCoord":0
				},
				"metallicFactor":0,
				"roughnessFactor":0.9
			}
		},
		{
			"doubleSided":true,
			"extensions":{
				"KHR_materials_unlit":{}
			},
			"name":"background",
			"pbrMetallicRoughness":{
				"baseColorTexture":{
					"extensions":{
						"KHR_texture_transform":{
							"offset":[
								0.15700000524520874,
								1.9500000178813934
							],
							"scale":[
								0.800000011920929,
								-0.800000011920929
							]
						}
					},
					"index":2,
					"texCoord":0
				},
				"metallicFactor":0,
				"roughnessFactor":0.9
			}
		}
	],
	"meshes":[
		{
			"name":"CaicosMesh",
			"primitives":[
				{
					"attributes":{
						"POSITION":0,
						"TEXCOORD_0":1,
						"NORMAL":2
					},
					"indices":3,
					"material":0
				},
				{
					"attributes":{
						"POSITION":4,
						"TEXCOORD_0":5,
						"NORMAL":6
					},
					"indices":7,
					"material":1
				},
				{
					"attributes":{
						"POSITION":8,
						"TEXCOORD_0":9,
						"NORMAL":10
					},
					"indices":11,
					"material":2
				}
			]
		}
	],
	"textures":[
		{
			"sampler":0,
			"source":0
		},
		{
			"sampler":0,
			"source":1
		},
		{
			"sampler":0,
			"source":2
		}
	],
	"images":[
		{
			"bufferView":4,
			"mimeType":"image/jpeg",
			"name":"utah"
		},
		{
			"bufferView":9,
			"mimeType":"image/jpeg",
			"name":"utahInfill"
		},
		{
			"bufferView":14,
			"mimeType":"image/jpeg",
			"name":"caicosless"
		}
	],
	"accessors":[
		{
			"bufferView":0,
			"componentType":5126,
			"count":1065,
			"max":[
				0.35955438017845154,
				0.10013186931610107,
				0.7544944882392883
			],
			"min":[
				-0.2067154496908188,
				-0.0303804911673069,
				-0.785671591758728
			],
			"type":"VEC3"
		},
		{
			"bufferView":1,
			"componentType":5126,
			"count":1065,
			"type":"VEC2"
		},
		{
			"bufferView":2,
			"componentType":5126,
			"count":1065,
			"type":"VEC3"
		},
		{
			"bufferView":3,
			"componentType":5123,
			"count":2028,
			"type":"SCALAR"
		},
		{
			"bufferView":5,
			"componentType":5126,
			"count":68,
			"max":[
				0.23826266825199127,
				0.03531681001186371,
				0.6697655916213989
			],
			"min":[
				0.005563907325267792,
				-0.016664020717144012,
				0.010199729353189468
			],
			"type":"VEC3"
		},
		{
			"bufferView":6,
			"componentType":5126,
			"count":68,
			"type":"VEC2"
		},
		{
			"bufferView":7,
			"componentType":5126,
			"count":68,
			"type":"VEC3"
		},
		{
			"bufferView":8,
			"componentType":5123,
			"count":126,
			"type":"SCALAR"
		},
		{
			"bufferView":10,
			"componentType":5126,
			"count":1243,
			"max":[
				0.6450000405311584,
				0.06622178852558136,
				0.9428156614303589
			],
			"min":[
				-0.6450000405311584,
				-0.2736791968345642,
				-0.9848580360412598
			],
			"type":"VEC3"
		},
		{
			"bufferView":11,
			"componentType":5126,
			"count":1243,
			"type":"VEC2"
		},
		{
			"bufferView":12,
			"componentType":5126,
			"count":1243,
			"type":"VEC3"
		},
		{
			"bufferView":13,
			"componentType":5123,
			"count":6966,
			"type":"SCALAR"
		}
	],
	"bufferViews":[
		{
			"buffer":0,
			"byteLength":12780,
			"byteOffset":0,
			"target":34962
		},
		{
			"buffer":0,
			"byteLength":8520,
			"byteOffset":12780,
			"target":34962
		},
		{
			"buffer":0,
			"byteLength":12780,
			"byteOffset":21300,
			"target":34962
		},
		{
			"buffer":0,
			"byteLength":4056,
			"byteOffset":34080,
			"target":34963
		},
		{
			"buffer":0,
			"byteLength":23679,
			"byteOffset":38136
		},
		{
			"buffer":0,
			"byteLength":816,
			"byteOffset":61816,
			"target":34962
		},
		{
			"buffer":0,
			"byteLength":544,
			"byteOffset":62632,
			"target":34962
		},
		{
			"buffer":0,
			"byteLength":816,
			"byteOffset":63176,
			"target":34962
		},
		{
			"buffer":0,
			"byteLength":252,
			"byteOffset":63992,
			"target":34963
		},
		{
			"buffer":0,
			"byteLength":5413,
			"byteOffset":64244
		},
		{
			"buffer":0,
			"byteLength":14916,
			"byteOffset":69660,
			"target":34962
		},
		{
			"buffer":0,
			"byteLength":9944,
			"byteOffset":84576,
			"target":34962
		},
		{
			"buffer":0,
			"byteLength":14916,
			"byteOffset":94520,
			"target":34962
		},
		{
			"buffer":0,
			"byteLength":13932,
			"byteOffset":109436,
			"target":34963
		},
		{
			"buffer":0,
			"byteLength":20127,
			"byteOffset":123368
		}
	],
	"samplers":[
		{
			"magFilter":9729,
			"minFilter":9987
		}
	],
	"buffers":[
		{
			"byteLength":143496,
			"uri":"data:application/octet-stream;base64,"
		}
	]
}
