<svg width="33" height="32" viewBox="0 0 33 32" fill="none" xmlns="http://www.w3.org/2000/svg">
<path d="M1.45891 28.0205C0.618514 28.8609 0.618514 30.2234 1.45891 31.0638C2.29931 31.9042 3.66186 31.9042 4.50226 31.0638L16.615 18.951L29.0337 31.3697C29.8741 32.2101 31.2366 32.2101 32.077 31.3697C32.9174 30.5293 32.9174 29.1667 32.077 28.3263L19.6584 15.9077L31.8924 3.67365C32.7328 2.83325 32.7328 1.4707 31.8924 0.630299C31.052 -0.2101 29.6895 -0.210099 28.8491 0.630299L16.615 12.8643L4.68687 0.936181C3.84648 0.0957822 2.48392 0.0957821 1.64352 0.936181C0.803125 1.77658 0.803125 3.13913 1.64352 3.97953L13.5717 15.9077L1.45891 28.0205Z" fill="#5E4F64"/>
</svg>
