<svg width="128" height="128" viewBox="0 0 128 128" fill="none" xmlns="http://www.w3.org/2000/svg">
<g clip-path="url(#clip0_804_2384)">
<path d="M42.3416 128C54.1176 128 63.675 118.443 63.675 106.667V85.3334H42.3416C30.5656 85.3334 21.0083 94.8907 21.0083 106.667C21.0083 118.443 30.5656 128 42.3416 128Z" fill="#0ACF83"/>
<path d="M21.0083 64C21.0083 52.224 30.5656 42.6666 42.3416 42.6666H63.675V85.3333H42.3416C30.5656 85.3333 21.0083 75.776 21.0083 64Z" fill="#A259FF"/>
<path d="M21.0083 21.3333C21.0083 9.55733 30.5656 0 42.3416 0H63.675V42.6667H42.3416C30.5656 42.6667 21.0083 33.1093 21.0083 21.3333Z" fill="#F24E1E"/>
<path d="M63.6753 0H85.0086C96.7846 0 106.342 9.55733 106.342 21.3333C106.342 33.1093 96.7846 42.6667 85.0086 42.6667H63.6753V0Z" fill="#FF7262"/>
<path d="M106.342 64C106.342 75.776 96.7846 85.3333 85.0086 85.3333C73.2326 85.3333 63.6753 75.776 63.6753 64C63.6753 52.224 73.2326 42.6666 85.0086 42.6666C96.7846 42.6666 106.342 52.224 106.342 64Z" fill="#1ABCFE"/>
</g>
<defs>
<clipPath id="clip0_804_2384">
<rect width="128" height="128" fill="white"/>
</clipPath>
</defs>
</svg>
