<svg width="128" height="128" viewBox="0 0 128 128" fill="none" xmlns="http://www.w3.org/2000/svg">
<g clip-path="url(#clip0_804_2799)">
<path d="M59.4093 74.5596L81.5117 48.219L76.9599 44.3996L54.8575 70.7402L59.4093 74.5596Z" fill="black"/>
<path d="M81.5119 48.219L103.614 21.8784L99.0624 18.059L76.9601 44.3996L81.5119 48.219Z" fill="#0019FF"/>
<path d="M81.8046 48.5352L104.363 22.5844L99.8788 18.6861L77.3201 44.6369L81.8046 48.5352Z" fill="#0015FF"/>
<path d="M82.0914 48.8565L105.1 23.3033L100.684 19.3273L77.6757 44.8805L82.0914 48.8565Z" fill="#0011FF"/>
<path d="M82.3731 49.1827L105.824 24.0349L101.478 19.9825L78.0274 45.1302L82.3731 49.1827Z" fill="#000CFF"/>
<path d="M82.6487 49.5137L106.535 24.7791L102.26 20.6514L78.3744 45.386L82.6487 49.5137Z" fill="#0008FF"/>
<path d="M82.9189 49.8495L107.233 25.5355L103.031 21.3339L78.7173 45.6479L82.9189 49.8495Z" fill="#0004FF"/>
<path d="M83.1828 50.19L107.917 26.3041L103.79 22.0298L79.0552 45.9157L83.1828 50.19Z" fill="#0000FF"/>
<path d="M83.4406 50.5351L108.588 27.0844L104.536 22.7387L79.3882 46.1894L83.4406 50.5351Z" fill="#0500FF"/>
<path d="M83.6929 50.8846L109.246 27.8764L105.27 23.4607L79.717 46.4688L83.6929 50.8846Z" fill="#0900FF"/>
<path d="M83.9388 51.2384L109.89 28.6797L105.991 24.1952L80.0405 46.7539L83.9388 51.2384Z" fill="#0D00FF"/>
<path d="M84.178 51.5965L110.519 29.4941L106.699 24.9423L80.3585 47.0447L84.178 51.5965Z" fill="#1100FF"/>
<path d="M84.4115 51.9587L111.134 30.3194L107.394 25.7016L80.6721 47.3409L84.4115 51.9587Z" fill="#1600FF"/>
<path d="M84.6385 52.3249L111.734 31.1553L108.076 26.4729L80.9802 47.6426L84.6385 52.3249Z" fill="#1A00FF"/>
<path d="M84.8591 52.6951L112.32 32.0015L108.744 27.2561L81.2831 47.9496L84.8591 52.6951Z" fill="#1E00FF"/>
<path d="M85.0729 53.069L112.891 32.8578L109.399 28.0507L81.5803 48.2618L85.0729 53.069Z" fill="#2200FF"/>
<path d="M85.2806 53.4466L113.447 33.7241L110.039 28.8567L81.8724 48.5792L85.2806 53.4466Z" fill="#2700FF"/>
<path d="M85.4817 53.8277L113.988 34.5998L110.666 29.6737L82.159 48.9016L85.4817 53.8277Z" fill="#2B00FF"/>
<path d="M85.6758 54.2123L114.514 35.4848L111.277 30.5014L82.4396 49.229L85.6758 54.2123Z" fill="#2F00FF"/>
<path d="M85.8631 54.6003L115.023 36.3789L111.875 31.3398L82.7144 49.5612L85.8631 54.6003Z" fill="#3300FF"/>
<path d="M86.0437 54.9914L115.518 37.2817L112.457 32.1885L82.9834 49.8982L86.0437 54.9914Z" fill="#3800FF"/>
<path d="M86.2176 55.3857L115.996 38.1931L113.025 33.0472L83.2467 50.2398L86.2176 55.3857Z" fill="#3C00FF"/>
<path d="M86.3845 55.7829L116.458 39.1127L113.578 33.9157L83.5038 50.586L86.3845 55.7829Z" fill="#4000FF"/>
<path d="M86.5445 56.183L116.905 40.0401L114.115 34.7936L83.7549 50.9365L86.5445 56.183Z" fill="#4400FF"/>
<path d="M86.6975 56.5858L117.335 40.9752L114.637 35.6809L83.9999 51.2914L86.6975 56.5858Z" fill="#4800FF"/>
<path d="M86.8433 56.9912L117.749 41.9177L115.144 36.5771L84.2385 51.6506L86.8433 56.9912Z" fill="#4D00FF"/>
<path d="M86.9819 57.3991L118.146 42.8673L115.634 37.482L84.4708 52.0139L86.9819 57.3991Z" fill="#5100FF"/>
<path d="M87.1134 57.8093L118.526 43.8236L116.109 38.3953L84.6966 52.3811L87.1134 57.8093Z" fill="#5500FF"/>
<path d="M87.2379 58.2219L118.89 44.7865L116.568 39.3169L84.9162 52.7522L87.2379 58.2219Z" fill="#5900FF"/>
<path d="M87.3554 58.6364L119.237 45.7555L117.011 40.2462L85.1295 53.1271L87.3554 58.6364Z" fill="#5E00FF"/>
<path d="M87.4656 59.053L119.567 46.7305L117.437 41.1832L85.3361 53.5057L87.4656 59.053Z" fill="#6200FF"/>
<path d="M87.5679 59.4715L119.879 47.7111L117.847 42.1274L85.5356 53.8879L87.5679 59.4715Z" fill="#6600FF"/>
<path d="M87.6635 59.8916L120.175 48.6969L118.241 43.0786L85.7289 54.2734L87.6635 59.8916Z" fill="#6A00FF"/>
<path d="M87.7514 60.3134L120.454 49.6878L118.617 44.0366L85.9152 54.6623L87.7514 60.3134Z" fill="#6F00FF"/>
<path d="M87.8321 60.7366L120.715 50.6833L118.978 45.001L86.0949 55.0543L87.8321 60.7366Z" fill="#7300FF"/>
<path d="M87.9053 61.1612L120.958 51.6833L119.321 45.9716L86.2675 55.4494L87.9053 61.1612Z" fill="#7700FF"/>
<path d="M87.971 61.587L121.185 52.6874L119.647 46.9479L86.4331 55.8475L87.971 61.587Z" fill="#7B00FF"/>
<path d="M88.0297 62.0139L121.394 53.6954L119.956 47.9299L86.5923 56.2484L88.0297 62.0139Z" fill="#8000FF"/>
<path d="M88.0806 62.4417L121.584 54.7067L120.248 48.917L86.7439 56.652L88.0806 62.4417Z" fill="#8400FF"/>
<path d="M88.124 62.8704L121.758 55.7213L120.522 49.9092L86.8886 57.0583L88.124 62.8704Z" fill="#8800FF"/>
<path d="M88.1601 63.2997L121.914 56.7387L120.78 50.9059L87.0264 57.4669L88.1601 63.2997Z" fill="#8C00FF"/>
<path d="M88.1885 63.7297L122.051 57.7587L121.019 51.907L87.1567 57.8779L88.1885 63.7297Z" fill="#9100FF"/>
<path d="M88.2095 64.16L122.171 58.7809L121.242 52.9121L87.28 58.2912L88.2095 64.16Z" fill="#9500FF"/>
<path d="M88.2229 64.5907L122.273 59.8052L121.446 53.921L87.3959 58.7065L88.2229 64.5907Z" fill="#9900FF"/>
<path d="M88.229 65.0214L122.358 60.8309L121.634 54.9332L87.5049 59.1237L88.229 65.0214Z" fill="#9D00FF"/>
<path d="M88.227 65.4523L122.424 61.8581L121.803 55.9487L87.6059 59.5429L88.227 65.4523Z" fill="#A100FF"/>
<path d="M88.2183 65.8831L122.473 62.8862L121.955 56.9669L87.7004 59.9637L88.2183 65.8831Z" fill="#A600FF"/>
<path d="M88.2015 66.3136L122.503 63.915L122.088 57.9875L87.787 60.3861L88.2015 66.3136Z" fill="#AA00FF"/>
<path d="M88.1776 66.7438L122.516 64.9442L122.205 59.0104L87.8666 60.81L88.1776 66.7438Z" fill="#AE00FF"/>
<path d="M88.1455 67.1735L122.51 65.9734L122.302 60.0351L87.9381 61.2351L88.1455 67.1735Z" fill="#B200FF"/>
<path d="M88.1064 67.6025L122.486 67.0024L122.383 61.0614L88.0027 61.6615L88.1064 67.6025Z" fill="#B700FF"/>
<path d="M88.0601 68.0309H122.445V62.0889H88.0601V68.0309Z" fill="#BB00FF"/>
<path d="M88.0058 68.4584L122.386 69.0585L122.489 63.1174L88.1095 62.5173L88.0058 68.4584Z" fill="#BF00FF"/>
<path d="M87.9443 68.8848L122.309 70.0848L122.516 64.1464L88.1517 62.9464L87.9443 68.8848Z" fill="#C300FF"/>
<path d="M87.8753 69.3101L122.213 71.1097L122.524 65.1758L88.1863 63.3763L87.8753 69.3101Z" fill="#C800FF"/>
<path d="M87.7992 69.7341L122.101 72.1327L122.515 66.2052L88.2136 63.8066L87.7992 69.7341Z" fill="#CC00FF"/>
<path d="M87.7154 70.1568L121.97 73.1536L122.488 67.2343L88.2333 64.2374L87.7154 70.1568Z" fill="#D000FF"/>
<path d="M87.624 70.5778L121.821 74.1721L122.442 68.2626L88.2451 64.6684L87.624 70.5778Z" fill="#D400FF"/>
<path d="M87.5259 70.9973L121.655 75.1878L122.379 69.2901L88.25 65.0996L87.5259 70.9973Z" fill="#D900FF"/>
<path d="M87.4201 71.415L121.471 76.2005L122.298 70.3164L88.2471 65.5309L87.4201 71.415Z" fill="#DD00FF"/>
<path d="M87.3067 71.8307L121.269 77.2098L122.198 71.341L88.2362 65.9619L87.3067 71.8307Z" fill="#E100FF"/>
<path d="M87.1865 72.2445L121.049 78.2154L122.081 72.3637L88.2183 66.3928L87.1865 72.2445Z" fill="#E500FF"/>
<path d="M87.0591 72.656L120.812 79.217L121.946 73.3842L88.1928 66.8232L87.0591 72.656Z" fill="#EA00FF"/>
<path d="M86.9243 73.0653L120.558 80.2144L121.794 74.4023L88.1597 67.2532L86.9243 73.0653Z" fill="#EE00FF"/>
<path d="M86.7827 73.4722L120.287 81.2072L121.623 75.4175L88.1194 67.6825L86.7827 73.4722Z" fill="#F200FF"/>
<path d="M86.6338 73.8765L119.998 82.1951L121.435 76.4296L88.0712 68.1111L86.6338 73.8765Z" fill="#F600FF"/>
<path d="M86.4779 74.2782L119.691 83.1777L121.229 77.4382L88.0158 68.5387L86.4779 74.2782Z" fill="#FA00FF"/>
<path d="M86.315 74.6771L119.368 84.1549L121.006 78.4431L87.9528 68.9653L86.315 74.6771Z" fill="#FF00FF"/>
<path d="M86.1451 75.073L119.028 85.1263L120.765 79.4439L87.8824 69.3907L86.1451 75.073Z" fill="#FF00FB"/>
<path d="M85.9686 75.466L118.671 86.0916L120.507 80.4405L87.8048 69.8148L85.9686 75.466Z" fill="#FF00F7"/>
<path d="M85.785 75.8558L118.297 87.0505L120.231 81.4323L87.7196 70.2376L85.785 75.8558Z" fill="#FF00F3"/>
<path d="M85.5947 76.2424L117.906 88.0028L119.939 82.4192L87.627 70.6587L85.5947 76.2424Z" fill="#FF00EE"/>
<path d="M85.3977 76.6256L117.499 88.9481L119.628 83.4008L87.5271 71.0783L85.3977 76.6256Z" fill="#FF00EA"/>
<path d="M85.1943 77.0052L117.076 89.8862L119.302 84.3769L87.4202 71.4959L85.1943 77.0052Z" fill="#FF00E6"/>
<path d="M84.984 77.3813L116.636 90.8167L118.957 85.347L87.3057 71.9117L84.984 77.3813Z" fill="#FF00E2"/>
<path d="M84.7673 77.7537L116.18 91.7394L118.597 86.3111L87.1841 72.3254L84.7673 77.7537Z" fill="#FF00DD"/>
<path d="M84.544 78.1221L115.708 92.6539L118.219 87.2687L87.0551 72.7369L84.544 78.1221Z" fill="#FF00D9"/>
<path d="M84.314 78.4867L115.219 93.5602L117.824 88.2196L86.9188 73.1461L84.314 78.4867Z" fill="#FF00D5"/>
<path d="M84.0784 78.8472L114.716 94.4577L117.413 89.1634L86.776 73.5528L84.0784 78.8472Z" fill="#FF00D1"/>
<path d="M83.836 79.2035L114.196 95.3464L116.986 90.0999L86.6256 73.957L83.836 79.2035Z" fill="#FF00CC"/>
<path d="M83.5877 79.5555L113.662 96.2258L116.542 91.0288L86.4684 74.3585L83.5877 79.5555Z" fill="#FF00C8"/>
<path d="M83.3329 79.9032L113.111 97.0958L116.082 91.9499L86.3039 74.7573L83.3329 79.9032Z" fill="#FF00C4"/>
<path d="M83.0725 80.2463L112.546 97.956L115.607 92.8627L86.1329 75.153L83.0725 80.2463Z" fill="#FF00C0"/>
<path d="M82.806 80.5848L111.966 98.8062L115.115 93.7671L85.9548 75.5458L82.806 80.5848Z" fill="#FF00BB"/>
<path d="M82.5337 80.9187L111.372 99.6462L114.608 94.6628L85.77 75.9353L82.5337 80.9187Z" fill="#FF00B7"/>
<path d="M82.2556 81.2477L110.762 100.476L114.085 95.5495L85.5783 76.3216L82.2556 81.2477Z" fill="#FF00B3"/>
<path d="M81.9715 81.5718L110.138 101.294L113.546 96.427L85.3797 76.7045L81.9715 81.5718Z" fill="#FF00AF"/>
<path d="M81.6823 81.891L109.5 102.102L112.993 97.295L85.1749 77.0838L81.6823 81.891Z" fill="#FF00AB"/>
<path d="M81.3869 82.205L108.848 102.898L112.424 98.153L84.9629 77.4595L81.3869 82.205Z" fill="#FF00A6"/>
<path d="M81.0867 82.5138L108.183 103.683L111.841 99.0011L84.745 77.8315L81.0867 82.5138Z" fill="#FF00A2"/>
<path d="M80.7806 82.8174L107.503 104.457L111.242 99.8389L84.52 78.1996L80.7806 82.8174Z" fill="#FF009E"/>
<path d="M80.47 83.1155L106.811 105.218L110.63 100.666L84.2894 78.5637L80.47 83.1155Z" fill="#FF009A"/>
<path d="M80.1537 83.4082L106.104 105.967L110.003 101.482L84.0519 78.9237L80.1537 83.4082Z" fill="#FF0095"/>
<path d="M79.8326 83.6954L105.386 106.704L109.362 102.288L83.8085 79.2796L79.8326 83.6954Z" fill="#FF0091"/>
<path d="M79.5061 83.9768L104.654 107.427L108.706 103.082L83.5585 79.6311L79.5061 83.9768Z" fill="#FF008D"/>
<path d="M79.175 84.2525L103.91 108.138L108.037 103.864L83.3027 79.9782L79.175 84.2525Z" fill="#FF0089"/>
<path d="M78.8393 84.5225L103.153 108.836L107.355 104.635L83.0409 80.3209L78.8393 84.5225Z" fill="#FF0084"/>
<path d="M78.4988 84.7865L102.385 109.521L106.659 105.393L82.7731 80.6588L78.4988 84.7865Z" fill="#FF0080"/>
<path d="M78.1538 85.0445L101.604 110.192L105.95 106.14L82.4995 80.9921L78.1538 85.0445Z" fill="#FF007C"/>
<path d="M77.8043 85.2965L100.812 110.85L105.228 106.874L82.2201 81.3205L77.8043 85.2965Z" fill="#FF0078"/>
<path d="M77.4506 85.5423L100.009 111.493L104.494 107.595L81.935 81.644L77.4506 85.5423Z" fill="#FF0073"/>
<path d="M77.0924 85.7819L99.1948 112.122L103.747 108.303L81.6443 81.9625L77.0924 85.7819Z" fill="#FF006F"/>
<path d="M76.7303 86.0152L98.3696 112.738L102.987 108.998L81.3481 82.2758L76.7303 86.0152Z" fill="#FF006B"/>
<path d="M76.3641 86.2422L97.5337 113.338L102.216 109.68L81.0464 82.584L76.3641 86.2422Z" fill="#FF0067"/>
<path d="M75.994 86.4628L96.6875 113.924L101.433 110.348L80.7394 82.8868L75.994 86.4628Z" fill="#FF0062"/>
<path d="M75.6199 86.6769L95.8311 114.495L100.638 111.002L80.4271 83.1842L75.6199 86.6769Z" fill="#FF005E"/>
<path d="M75.2423 86.8843L94.9648 115.051L99.8322 111.643L80.1097 83.4761L75.2423 86.8843Z" fill="#FF005A"/>
<path d="M74.8609 87.0852L94.0889 115.592L99.015 112.269L79.787 83.7625L74.8609 87.0852Z" fill="#FF0056"/>
<path d="M74.4766 87.2794L93.2041 116.117L98.1875 112.881L79.4599 84.0432L74.4766 87.2794Z" fill="#FF0052"/>
<path d="M74.0887 87.4669L92.3101 116.627L97.3491 113.478L79.1278 84.3181L74.0887 87.4669Z" fill="#FF004D"/>
<path d="M73.6975 87.6475L91.4072 117.121L96.5005 114.061L78.7908 84.5872L73.6975 87.6475Z" fill="#FF0049"/>
<path d="M73.303 87.8213L90.4956 117.6L95.6415 114.629L78.4489 84.8504L73.303 87.8213Z" fill="#FF0045"/>
<path d="M72.9059 87.9882L89.5762 118.062L94.7731 115.181L78.1029 85.1074L72.9059 87.9882Z" fill="#FF0041"/>
<path d="M72.5061 88.1481L88.6489 118.508L93.8954 115.719L77.7525 85.3585L72.5061 88.1481Z" fill="#FF003C"/>
<path d="M72.1028 88.301L87.7134 118.938L93.0077 116.241L77.3972 85.6034L72.1028 88.301Z" fill="#FF0038"/>
<path d="M71.6975 88.447L86.771 119.352L92.1116 116.747L77.0381 85.8422L71.6975 88.447Z" fill="#FF0034"/>
<path d="M71.2895 88.5857L85.8213 119.749L91.2065 117.238L76.6747 86.0745L71.2895 88.5857Z" fill="#FF0030"/>
<path d="M70.8795 88.7173L84.8652 120.13L90.2935 117.713L76.3078 86.3005L70.8795 88.7173Z" fill="#FF002B"/>
<path d="M70.467 88.8418L83.9023 120.494L89.372 118.172L75.9366 86.5201L70.467 88.8418Z" fill="#FF0027"/>
<path d="M70.0522 88.9591L82.9331 120.84L88.4424 118.615L75.5615 86.7332L70.0522 88.9591Z" fill="#FF0023"/>
<path d="M69.6359 89.0691L81.9585 121.17L87.5058 119.041L75.1833 86.9397L69.6359 89.0691Z" fill="#FF001F"/>
<path d="M69.2171 89.1718L80.9775 121.483L86.5612 119.451L74.8007 87.1395L69.2171 89.1718Z" fill="#FF001A"/>
<path d="M68.797 89.2671L79.9917 121.779L85.6099 119.844L74.4152 87.3326L68.797 89.2671Z" fill="#FF0016"/>
<path d="M68.3754 89.3551L79.001 122.057L84.6521 120.221L74.0265 87.5189L68.3754 89.3551Z" fill="#FF0012"/>
<path d="M67.9521 89.4358L78.0054 122.318L83.6877 120.581L73.6345 87.6985L67.9521 89.4358Z" fill="#FF000E"/>
<path d="M67.5275 89.5091L77.0054 122.562L82.7172 120.924L73.2393 87.8713L67.5275 89.5091Z" fill="#FF0009"/>
<path d="M67.1019 89.5749L76.0015 122.788L81.741 121.251L72.8414 88.037L67.1019 89.5749Z" fill="#FF0005"/>
<path d="M66.6751 89.6333L74.9937 122.997L80.7591 121.56L72.4406 88.1958L66.6751 89.6333Z" fill="#FF0001"/>
<path d="M66.247 89.6842L73.9819 123.188L79.7716 121.851L72.0366 88.3476L66.247 89.6842Z" fill="#FF0300"/>
<path d="M65.8182 89.7277L72.9673 123.361L78.7794 122.126L71.6303 88.4922L65.8182 89.7277Z" fill="#FF0700"/>
<path d="M65.3892 89.7636L71.9502 123.517L77.783 122.383L71.222 88.6299L65.3892 89.7636Z" fill="#FF0C00"/>
<path d="M64.9593 89.7921L70.9302 123.655L76.7819 122.623L70.811 88.7603L64.9593 89.7921Z" fill="#FF1000"/>
<path d="M64.5287 89.8132L69.9077 123.775L75.7765 122.845L70.3975 88.8836L64.5287 89.8132Z" fill="#FF1400"/>
<path d="M64.0983 89.8266L68.8838 123.877L74.7679 123.05L69.9824 88.9997L64.0983 89.8266Z" fill="#FF1800"/>
<path d="M63.6674 89.8325L67.8579 123.961L73.7556 123.237L69.5651 89.1084L63.6674 89.8325Z" fill="#FF1D00"/>
<path d="M63.2363 89.831L66.8306 124.028L72.74 123.407L69.1458 89.2099L63.2363 89.831Z" fill="#FF2100"/>
<path d="M62.8059 89.8218L65.8027 124.076L71.7221 123.558L68.7252 89.3039L62.8059 89.8218Z" fill="#FF2500"/>
<path d="M62.3753 89.8053L64.7739 124.107L70.7014 123.692L68.3028 89.3908L62.3753 89.8053Z" fill="#FF2900"/>
<path d="M61.945 89.7811L63.7446 124.119L69.6785 123.808L67.8789 89.4701L61.945 89.7811Z" fill="#FF2E00"/>
<path d="M61.5153 89.7494L62.7153 124.114L68.6537 123.906L67.4537 89.542L61.5153 89.7494Z" fill="#FF3200"/>
<path d="M61.0864 89.7104L61.6865 124.09L67.6276 123.987L67.0275 89.6067L61.0864 89.7104Z" fill="#FF3600"/>
<path d="M60.6577 89.6638V124.049H66.5997V89.6638H60.6577Z" fill="#FF3A00"/>
<path d="M60.2305 89.6097L59.6304 123.99L65.5714 124.093L66.1715 89.7134L60.2305 89.6097Z" fill="#FF3F00"/>
<path d="M59.804 89.5481L58.604 123.912L64.5424 124.12L65.7424 89.7555L59.804 89.5481Z" fill="#FF4300"/>
<path d="M59.3787 89.4792L57.5791 123.817L63.5129 124.128L65.3125 89.7902L59.3787 89.4792Z" fill="#FF4700"/>
<path d="M58.9547 89.4028L56.5562 123.704L62.4837 124.119L64.8822 89.8173L58.9547 89.4028Z" fill="#FF4B00"/>
<path d="M58.532 89.319L55.5352 123.573L61.4545 124.091L64.4514 89.8369L58.532 89.319Z" fill="#FF5000"/>
<path d="M58.1108 89.2279L54.5166 123.425L60.426 124.046L64.0203 89.849L58.1108 89.2279Z" fill="#FF5400"/>
<path d="M57.6915 89.1294L53.501 123.258L59.3987 123.982L63.5892 89.8536L57.6915 89.1294Z" fill="#FF5800"/>
<path d="M57.2738 89.0237L52.4883 123.074L58.3724 123.901L63.1579 89.8506L57.2738 89.0237Z" fill="#FF5C00"/>
<path d="M56.858 88.9106L51.479 122.872L57.3478 123.802L62.7269 89.8401L56.858 88.9106Z" fill="#FF6000"/>
<path d="M56.4446 88.7904L50.4736 122.653L56.3253 123.685L62.2963 89.8222L56.4446 88.7904Z" fill="#FF6500"/>
<path d="M56.0327 88.6628L49.4717 122.416L55.3045 123.55L61.8655 89.7966L56.0327 88.6628Z" fill="#FF6900"/>
<path d="M55.6237 88.5282L48.4746 122.162L54.2867 123.397L61.4358 89.7636L55.6237 88.5282Z" fill="#FF6D00"/>
<path d="M55.2164 88.3865L47.4814 121.89L53.2711 123.227L61.0061 89.7231L55.2164 88.3865Z" fill="#FF7100"/>
<path d="M54.8122 88.2376L46.4937 121.601L52.2591 123.039L60.5777 89.6751L54.8122 88.2376Z" fill="#FF7600"/>
<path d="M54.4108 88.0817L45.5112 121.295L51.2507 122.833L60.1503 89.6196L54.4108 88.0817Z" fill="#FF7A00"/>
<path d="M54.0115 87.9189L44.5337 120.972L50.2455 122.61L59.7233 89.5567L54.0115 87.9189Z" fill="#FF7E00"/>
<path d="M53.6158 87.7491L43.5625 120.632L49.2448 122.369L59.2981 89.4864L53.6158 87.7491Z" fill="#FF8200"/>
<path d="M53.2228 87.5724L42.5972 120.275L48.2483 122.111L58.8739 89.4086L53.2228 87.5724Z" fill="#FF8700"/>
<path d="M52.8329 87.3888L41.6382 119.901L47.2564 121.835L58.4512 89.3233L52.8329 87.3888Z" fill="#FF8B00"/>
<path d="M52.4465 87.1985L40.686 119.51L46.2697 121.542L58.0301 89.2308L52.4465 87.1985Z" fill="#FF8F00"/>
<path d="M52.0633 87.0016L39.7407 119.103L45.288 121.232L57.6106 89.131L52.0633 87.0016Z" fill="#FF9300"/>
<path d="M51.6837 86.7978L38.8027 118.679L44.312 120.905L57.193 89.0237L51.6837 86.7978Z" fill="#FF9800"/>
<path d="M51.3074 86.5876L37.8721 118.239L43.3417 120.561L56.7771 88.9094L51.3074 86.5876Z" fill="#FF9C00"/>
<path d="M50.9349 86.3708L36.9492 117.783L42.3775 120.2L56.3632 88.7876L50.9349 86.3708Z" fill="#FFA000"/>
<path d="M50.5665 86.1475L36.0347 117.311L41.4199 119.822L55.9517 88.6587L50.5665 86.1475Z" fill="#FFA400"/>
<path d="M50.2019 85.9179L35.1284 116.823L40.469 119.428L55.5425 88.5226L50.2019 85.9179Z" fill="#FFA900"/>
<path d="M49.8415 85.6819L34.231 116.319L39.5253 119.017L55.1358 88.3795L49.8415 85.6819Z" fill="#FFAD00"/>
<path d="M49.4852 85.4397L33.3423 115.8L38.5887 118.59L54.7316 88.2293L49.4852 85.4397Z" fill="#FFB100"/>
<path d="M49.1332 85.1912L32.4629 115.265L37.6599 118.146L54.3301 88.072L49.1332 85.1912Z" fill="#FFB500"/>
<path d="M48.7859 84.9367L31.5933 114.715L36.7392 117.686L53.9318 87.9077L48.7859 84.9367Z" fill="#FFB900"/>
<path d="M48.4426 84.6762L30.7329 114.15L35.8262 117.21L53.5359 87.7365L48.4426 84.6762Z" fill="#FFBE00"/>
<path d="M48.1042 84.4096L29.8828 113.57L34.9219 116.719L53.1433 87.5584L48.1042 84.4096Z" fill="#FFC200"/>
<path d="M47.77 84.1372L29.0425 112.975L34.0258 116.211L52.7534 87.3735L47.77 84.1372Z" fill="#FFC600"/>
<path d="M47.4413 83.8591L28.2134 112.366L33.1395 115.688L52.3675 87.1818L47.4413 83.8591Z" fill="#FFCA00"/>
<path d="M47.1171 83.5752L27.3945 111.742L32.2619 115.15L51.9845 86.9834L47.1171 83.5752Z" fill="#FFCF00"/>
<path d="M46.798 83.2858L26.5869 111.104L31.3941 114.597L51.6052 86.7784L46.798 83.2858Z" fill="#FFD300"/>
<path d="M46.4841 82.9908L25.7905 110.452L30.536 114.028L51.2295 86.5668L46.4841 82.9908Z" fill="#FFD700"/>
<path d="M46.175 82.6904L25.0054 109.786L29.6877 113.445L50.8574 86.3486L46.175 82.6904Z" fill="#FFDB00"/>
<path d="M45.8712 82.3846L24.2319 109.107L28.8497 112.846L50.489 86.124L45.8712 82.3846Z" fill="#FFE000"/>
<path d="M45.5731 82.0735L23.4707 108.414L28.0225 112.234L50.1249 85.893L45.5731 82.0735Z" fill="#FFE400"/>
<path d="M45.2804 81.7574L22.7217 107.708L27.2061 111.606L49.7649 85.6556L45.2804 81.7574Z" fill="#FFE800"/>
<path d="M44.9935 81.4361L21.9854 106.989L26.4011 110.965L49.4093 85.412L44.9935 81.4361Z" fill="#FFEC00"/>
<path d="M44.7119 81.1099L21.2612 106.258L25.6069 110.31L49.0576 85.1623L44.7119 81.1099Z" fill="#FFF100"/>
<path d="M44.4363 80.7789L20.5503 105.513L24.8246 109.641L48.7106 84.9065L44.4363 80.7789Z" fill="#FFF500"/>
<path d="M44.1665 80.443L19.8525 104.757L24.0542 108.959L48.3682 84.6446L44.1665 80.443Z" fill="#FFF900"/>
<path d="M43.9021 80.1025L19.1675 103.988L23.2951 108.263L48.0298 84.3768L43.9021 80.1025Z" fill="#FFFD00"/>
<path d="M43.6443 79.7574L18.4966 103.208L22.549 107.554L47.6967 84.1031L43.6443 79.7574Z" fill="#FCFF00"/>
<path d="M43.3925 79.408L17.8394 102.416L21.8153 106.832L47.3685 83.8237L43.3925 79.408Z" fill="#F8FF00"/>
<path d="M43.1466 79.0541L17.1958 101.613L21.0941 106.097L47.0449 83.5386L43.1466 79.0541Z" fill="#F4FF00"/>
<path d="M42.907 78.696L16.5664 100.798L20.3858 105.35L46.7264 83.2478L42.907 78.696Z" fill="#F0FF00"/>
<path d="M42.6735 78.3338L15.9512 99.9731L19.6906 104.591L46.4129 82.9516L42.6735 78.3338Z" fill="#ECFF00"/>
<path d="M42.4465 77.9676L15.3506 99.1373L19.0088 103.82L46.1047 82.65L42.4465 77.9676Z" fill="#E7FF00"/>
<path d="M42.2259 77.5975L14.7646 98.291L18.3406 103.036L45.8019 82.343L42.2259 77.5975Z" fill="#E3FF00"/>
<path d="M42.0121 77.2236L14.1938 97.4347L17.6865 102.242L45.5047 82.0307L42.0121 77.2236Z" fill="#DFFF00"/>
<path d="M41.8044 76.8459L13.6377 96.5685L17.0459 101.436L45.2126 81.7133L41.8044 76.8459Z" fill="#DBFF00"/>
<path d="M41.6038 76.4648L13.0972 95.6927L16.4199 100.619L44.9265 81.3909L41.6038 76.4648Z" fill="#D6FF00"/>
<path d="M41.4096 76.0802L12.5718 94.8077L15.808 99.791L44.6459 81.0635L41.4096 76.0802Z" fill="#D2FF00"/>
<path d="M41.2218 75.6923L12.0615 93.9136L15.2103 98.9527L44.3706 80.7313L41.2218 75.6923Z" fill="#CEFF00"/>
<path d="M41.0412 75.3011L11.5674 93.0107L14.6277 98.104L44.1016 80.3943L41.0412 75.3011Z" fill="#CAFF00"/>
<path d="M40.8673 74.9068L11.0889 92.0994L14.0599 97.2453L43.8383 80.0527L40.8673 74.9068Z" fill="#C5FF00"/>
<path d="M40.7004 74.5096L10.6265 91.1799L13.5072 96.3768L43.5812 79.7066L40.7004 74.5096Z" fill="#C1FF00"/>
<path d="M40.5405 74.1096L10.1802 90.2524L12.9698 95.4989L43.3301 79.356L40.5405 74.1096Z" fill="#BDFF00"/>
<path d="M40.3879 73.7067L9.75049 89.3173L12.4481 94.6116L43.0855 79.0011L40.3879 73.7067Z" fill="#B9FF00"/>
<path d="M40.2416 73.3013L9.33643 88.3748L11.9412 93.7154L42.8464 78.642L40.2416 73.3013Z" fill="#B4FF00"/>
<path d="M40.103 72.8934L8.93945 87.4252L11.4506 92.8105L42.6142 78.2787L40.103 72.8934Z" fill="#B0FF00"/>
<path d="M39.9715 72.4832L8.55908 86.4689L10.9759 91.8972L42.3883 77.9115L39.9715 72.4832Z" fill="#ACFF00"/>
<path d="M39.847 72.0707L8.19531 85.506L10.517 90.9757L42.1688 77.5403L39.847 72.0707Z" fill="#A8FF00"/>
<path d="M39.7295 71.6561L7.84814 84.537L10.074 90.0463L41.9554 77.1654L39.7295 71.6561Z" fill="#A3FF00"/>
<path d="M39.6199 71.2395L7.51855 83.5621L9.64797 89.1094L41.7493 76.7868L39.6199 71.2395Z" fill="#9FFF00"/>
<path d="M39.5171 70.8211L7.20557 82.5815L9.23784 88.1651L41.5494 76.4047L39.5171 70.8211Z" fill="#9BFF00"/>
<path d="M39.4215 70.4009L6.90967 81.5956L8.84419 87.2139L41.356 76.0192L39.4215 70.4009Z" fill="#97FF00"/>
<path d="M39.3336 69.9791L6.63135 80.6047L8.46752 86.2559L41.1698 75.6303L39.3336 69.9791Z" fill="#93FF00"/>
<path d="M39.2528 69.5559L6.37012 79.6092L8.10738 85.2915L40.9901 75.2383L39.2528 69.5559Z" fill="#8EFF00"/>
<path d="M39.1796 69.1313L6.12646 78.6092L7.7643 84.321L40.8175 74.8431L39.1796 69.1313Z" fill="#8AFF00"/>
<path d="M39.1139 68.7055L5.90039 77.605L7.43829 83.3446L40.6518 74.445L39.1139 68.7055Z" fill="#86FF00"/>
<path d="M39.0557 68.2786L5.69189 76.5972L7.12939 82.3626L40.4932 74.0441L39.0557 68.2786Z" fill="#82FF00"/>
<path d="M39.0044 67.8508L5.50049 75.5858L6.83714 81.3755L40.341 73.6405L39.0044 67.8508Z" fill="#7DFF00"/>
<path d="M38.9609 67.4221L5.32715 74.5712L6.56255 80.3834L40.1963 73.2343L38.9609 67.4221Z" fill="#79FF00"/>
<path d="M38.9253 66.9928L5.17188 73.5538L6.30566 79.3866L40.0591 72.8256L38.9253 66.9928Z" fill="#75FF00"/>
<path d="M38.8965 66.5629L5.03369 72.5338L6.0655 78.3855L39.9283 72.4146L38.8965 66.5629Z" fill="#71FF00"/>
<path d="M38.8759 66.1326L4.91406 71.5116L5.84359 77.3804L39.8054 72.0014L38.8759 66.1326Z" fill="#6CFF00"/>
<path d="M38.8621 65.7019L4.81152 70.4874L5.63849 76.3715L39.689 71.586L38.8621 65.7019Z" fill="#68FF00"/>
<path d="M38.8564 65.271L4.72754 69.4615L5.45168 75.3592L39.5806 71.1687L38.8564 65.271Z" fill="#64FF00"/>
<path d="M38.858 64.8402L4.66113 68.4344L5.28224 74.3439L39.4791 70.7496L38.858 64.8402Z" fill="#60FF00"/>
<path d="M38.8671 64.4094L4.61279 67.4063L5.13067 73.3257L39.385 70.3288L38.8671 64.4094Z" fill="#5BFF00"/>
<path d="M38.8835 63.9789L4.58203 66.3775L4.99652 72.305L39.298 69.9064L38.8835 63.9789Z" fill="#57FF00"/>
<path d="M38.9079 63.5487L4.56982 65.3483L4.8808 71.2822L39.2189 69.4826L38.9079 63.5487Z" fill="#53FF00"/>
<path d="M38.9394 63.1191L4.5752 64.3191L4.78257 70.2574L39.1468 69.0574L38.9394 63.1191Z" fill="#4FFF00"/>
<path d="M38.9786 62.69L4.59863 63.2901L4.70233 69.2312L39.0823 68.6311L38.9786 62.69Z" fill="#4AFF00"/>
<path d="M39.0248 62.2617H4.63965V68.2036H39.0248V62.2617Z" fill="#46FF00"/>
<path d="M39.0792 61.8342L4.69922 61.2341L4.59552 67.1751L38.9755 67.7752L39.0792 61.8342Z" fill="#42FF00"/>
<path d="M39.1406 61.4077L4.77637 60.2077L4.569 66.1461L38.9332 67.3461L39.1406 61.4077Z" fill="#3EFF00"/>
<path d="M39.2097 60.9824L4.87158 59.1829L4.5606 65.1167L38.8987 66.9163L39.2097 60.9824Z" fill="#3AFF00"/>
<path d="M39.2858 60.5584L4.98438 58.1599L4.56988 64.0874L38.8713 66.4859L39.2858 60.5584Z" fill="#35FF00"/>
<path d="M39.3696 60.1358L5.11523 57.1389L4.59736 63.0583L38.8517 66.0552L39.3696 60.1358Z" fill="#31FF00"/>
<path d="M39.461 59.7147L5.26416 56.1205L4.64305 62.0299L38.8399 65.6241L39.461 59.7147Z" fill="#2DFF00"/>
<path d="M39.5596 59.2952L5.43066 55.1047L4.70652 61.0024L38.8354 65.1929L39.5596 59.2952Z" fill="#29FF00"/>
<path d="M39.6653 58.8775L5.61475 54.092L4.78778 59.9762L38.8383 64.7617L39.6653 58.8775Z" fill="#24FF00"/>
<path d="M39.7783 58.4618L5.81641 53.0828L4.88688 58.9516L38.8487 64.3306L39.7783 58.4618Z" fill="#20FF00"/>
<path d="M39.8984 58.0481L6.03564 52.0771L5.00383 57.9289L38.8666 63.8998L39.8984 58.0481Z" fill="#1CFF00"/>
<path d="M40.0259 57.6365L6.27246 51.0755L5.13868 56.9083L38.8921 63.4693L40.0259 57.6365Z" fill="#18FF00"/>
<path d="M40.1606 57.2272L6.52686 50.0781L5.29145 55.8903L38.9252 63.0393L40.1606 57.2272Z" fill="#13FF00"/>
<path d="M40.3022 56.8204L6.79834 49.0854L5.46169 54.8751L38.9656 62.6101L40.3022 56.8204Z" fill="#0FFF00"/>
<path d="M40.4512 56.416L7.0874 48.0975L5.64991 53.8629L39.0137 62.1815L40.4512 56.416Z" fill="#0BFF00"/>
<path d="M40.6071 56.0144L7.39355 47.1148L5.85566 52.8543L39.0692 61.7539L40.6071 56.0144Z" fill="#07FF00"/>
<path d="M40.77 55.6155L7.7168 46.1376L6.07897 51.8494L39.1321 61.3273L40.77 55.6155Z" fill="#02FF00"/>
<path d="M40.9399 55.2195L8.05713 45.1662L6.31986 50.8485L39.2026 60.9018L40.9399 55.2195Z" fill="#00FF02"/>
<path d="M41.1163 54.8265L8.41406 44.2009L6.57789 49.8521L39.2802 60.4777L41.1163 54.8265Z" fill="#00FF06"/>
<path d="M41.2999 54.4367L8.78809 43.242L6.85357 48.8603L39.3654 60.055L41.2999 54.4367Z" fill="#00FF0A"/>
<path d="M41.4902 54.0502L9.17871 42.2897L7.14644 47.8734L39.4579 59.6338L41.4902 54.0502Z" fill="#00FF0F"/>
<path d="M41.6873 53.667L9.58594 41.3444L7.45652 46.8917L39.5579 59.2143L41.6873 53.667Z" fill="#00FF13"/>
<path d="M41.8912 53.2873L10.0098 40.4064L7.78386 45.9157L39.6653 58.7966L41.8912 53.2873Z" fill="#00FF17"/>
<path d="M42.1014 52.9113L10.4497 39.4759L8.12799 44.9455L39.7797 58.3809L42.1014 52.9113Z" fill="#00FF1B"/>
<path d="M42.3182 52.5389L10.9058 38.5532L8.48894 43.9814L39.9014 57.9671L42.3182 52.5389Z" fill="#00FF1F"/>
<path d="M42.5415 52.1704L11.3779 37.6385L8.86674 43.0238L40.0303 57.5556L42.5415 52.1704Z" fill="#00FF24"/>
<path d="M42.7709 51.8058L11.8657 36.7324L9.26093 42.073L40.1661 57.1465L42.7709 51.8058Z" fill="#00FF28"/>
<path d="M43.0071 51.4453L12.3696 35.8348L9.67203 41.1291L40.3095 56.7397L43.0071 51.4453Z" fill="#00FF2C"/>
<path d="M43.249 51.089L12.8887 34.9462L10.0991 40.1926L40.4594 56.3355L43.249 51.089Z" fill="#00FF30"/>
<path d="M43.4978 50.737L13.4238 34.0668L10.5431 39.2637L40.6171 55.934L43.4978 50.737Z" fill="#00FF35"/>
<path d="M43.7521 50.3894L13.9736 33.1968L11.0026 38.3427L40.7811 55.5353L43.7521 50.3894Z" fill="#00FF39"/>
<path d="M44.0124 50.0462L14.5386 32.3365L11.4782 37.4298L40.9521 55.1395L44.0124 50.0462Z" fill="#00FF3D"/>
<path d="M44.2789 49.7077L15.1187 31.4863L11.9699 36.5254L41.1302 54.7468L44.2789 49.7077Z" fill="#00FF41"/>
<path d="M44.5517 49.3739L15.7139 30.6464L12.4776 35.6297L41.3155 54.3572L44.5517 49.3739Z" fill="#00FF46"/>
<path d="M44.8299 49.0448L16.3232 29.8168L13.0005 34.743L41.5071 53.9709L44.8299 49.0448Z" fill="#00FF4A"/>
<path d="M45.1135 48.7207L16.9468 28.9982L13.5386 33.8656L41.7053 53.5881L45.1135 48.7207Z" fill="#00FF4E"/>
<path d="M45.4032 48.4015L17.585 28.1904L14.0924 32.9976L41.9106 53.2087L45.4032 48.4015Z" fill="#00FF52"/>
<path d="M45.6981 48.0875L18.2368 27.394L14.6608 32.1395L42.1221 52.833L45.6981 48.0875Z" fill="#00FF57"/>
<path d="M45.9982 47.7787L18.9023 26.6091L15.2441 31.2914L42.34 52.4611L45.9982 47.7787Z" fill="#00FF5B"/>
<path d="M46.3043 47.4752L19.582 25.8359L15.8426 30.4537L42.5649 52.093L46.3043 47.4752Z" fill="#00FF5F"/>
<path d="M46.6155 47.177L20.2749 25.0746L16.4555 29.6265L42.7961 51.7288L46.6155 47.177Z" fill="#00FF63"/>
<path d="M46.9313 46.8843L20.9805 24.3256L17.0822 28.8101L43.033 51.3688L46.9313 46.8843Z" fill="#00FF68"/>
<path d="M47.2529 46.5972L21.6997 23.589L17.7237 28.0047L43.2769 51.0129L47.2529 46.5972Z" fill="#00FF6C"/>
<path d="M47.5789 46.3157L22.4312 22.8651L18.3787 27.2107L43.5265 50.6614L47.5789 46.3157Z" fill="#00FF70"/>
<path d="M47.9099 46.04L23.1753 22.1541L19.0476 26.4284L43.7823 50.3143L47.9099 46.04Z" fill="#00FF74"/>
<path d="M48.2456 45.7701L23.9316 21.4561L19.73 25.6577L44.044 49.9717L48.2456 45.7701Z" fill="#00FF78"/>
<path d="M48.5862 45.5061L24.7002 20.7714L20.4259 24.8991L44.3119 49.6337L48.5862 45.5061Z" fill="#00FF7D"/>
<path d="M48.9316 45.248L25.481 20.1003L21.1353 24.1527L44.5859 49.3004L48.9316 45.248Z" fill="#00FF81"/>
<path d="M49.2806 44.9961L26.2725 19.4429L21.8567 23.4188L44.8649 48.972L49.2806 44.9961Z" fill="#00FF85"/>
<path d="M49.6349 44.7502L27.0762 18.7994L22.5917 22.6977L45.1504 48.6485L49.6349 44.7502Z" fill="#00FF89"/>
<path d="M49.993 44.5106L27.8906 18.17L23.3388 21.9895L45.4412 48.3301L49.993 44.5106Z" fill="#00FF8E"/>
<path d="M50.3551 44.2773L28.7158 17.555L24.098 21.2944L45.7373 48.0167L50.3551 44.2773Z" fill="#00FF92"/>
<path d="M50.7214 44.0503L29.5518 16.9544L24.8694 20.6127L46.0391 47.7086L50.7214 44.0503Z" fill="#00FF96"/>
<path d="M51.0915 43.8298L30.3979 16.3685L25.6525 19.9445L46.346 47.4057L51.0915 43.8298Z" fill="#00FF9A"/>
<path d="M51.465 43.6157L31.2539 15.7975L26.4467 19.2901L46.6579 47.1083L51.465 43.6157Z" fill="#00FF9F"/>
<path d="M51.8427 43.4082L32.1201 15.2415L27.2527 18.6497L46.9753 46.8164L51.8427 43.4082Z" fill="#00FFA3"/>
<path d="M52.224 43.2073L32.9961 14.7007L28.07 18.0234L47.2979 46.53L52.224 43.2073Z" fill="#00FFA7"/>
<path d="M52.6089 43.0131L33.8813 14.1753L28.898 17.4115L47.6255 46.2494L52.6089 43.0131Z" fill="#00FFAB"/>
<path d="M52.9968 42.8256L34.7754 13.6653L29.7363 16.8141L47.9577 45.9744L52.9968 42.8256Z" fill="#00FFB0"/>
<path d="M53.3879 42.645L35.6782 13.1711L30.585 16.2315L48.2946 45.7053L53.3879 42.645Z" fill="#00FFB4"/>
<path d="M53.782 42.4712L36.5894 12.6927L31.4435 15.6637L48.636 45.4422L53.782 42.4712Z" fill="#00FFB8"/>
<path d="M54.1791 42.3043L37.5088 12.2303L32.3118 15.1111L48.9821 45.185L54.1791 42.3043Z" fill="#00FFBC"/>
<path d="M54.5794 42.1444L38.4365 11.7841L33.1901 14.5736L49.3329 44.934L54.5794 42.1444Z" fill="#00FFC1"/>
<path d="M54.9821 41.9914L39.3716 11.354L34.0772 14.0516L49.6878 44.689L54.9821 41.9914Z" fill="#00FFC5"/>
<path d="M55.3874 41.8456L40.314 10.9404L34.9734 13.5452L50.0468 44.4504L55.3874 41.8456Z" fill="#00FFC9"/>
<path d="M55.7955 41.7068L41.2637 10.5432L35.8784 13.0544L50.4102 44.218L55.7955 41.7068Z" fill="#00FFCD"/>
<path d="M56.2054 41.5752L42.2197 10.1627L36.7915 12.5795L50.7772 43.992L56.2054 41.5752Z" fill="#00FFD1"/>
<path d="M56.618 41.4507L43.1826 9.79895L37.713 12.1207L51.1484 43.7724L56.618 41.4507Z" fill="#00FFD6"/>
<path d="M57.0328 41.3335L44.1519 9.45209L38.6426 11.678L51.5235 43.5594L57.0328 41.3335Z" fill="#00FFDA"/>
<path d="M57.4495 41.2235L45.127 9.12213L39.5796 11.2515L51.9022 43.3529L57.4495 41.2235Z" fill="#00FFDE"/>
<path d="M57.8678 41.1208L46.1074 8.80927L40.5238 10.8415L52.2842 43.1531L57.8678 41.1208Z" fill="#00FFE2"/>
<path d="M58.288 41.0254L47.0933 8.51355L41.475 10.4481L52.6697 42.9599L58.288 41.0254Z" fill="#00FFE7"/>
<path d="M58.7096 40.9374L48.084 8.23511L42.4328 10.0713L53.0584 42.7735L58.7096 40.9374Z" fill="#00FFEB"/>
<path d="M59.1328 40.8567L49.0796 7.974L43.3972 9.71126L53.4505 42.594L59.1328 40.8567Z" fill="#00FFEF"/>
<path d="M59.5574 40.7835L50.0796 7.73029L44.3678 9.36812L53.8456 42.4213L59.5574 40.7835Z" fill="#00FFF3"/>
<path d="M59.9835 40.7176L51.084 7.50409L45.3445 9.04199L54.244 42.2555L59.9835 40.7176Z" fill="#00FFF8"/>
<path d="M60.4103 40.6592L52.0918 7.29541L46.3263 8.7329L54.6449 42.0967L60.4103 40.6592Z" fill="#00FFFC"/>
<path d="M60.838 40.6083L53.103 7.10437L47.3133 8.44102L55.0483 41.9449L60.838 40.6083Z" fill="#00FEFF"/>
<path d="M61.2668 40.5648L54.1177 6.93103L48.3055 8.16644L55.4546 41.8002L61.2668 40.5648Z" fill="#00FAFF"/>
<path d="M61.6958 40.5288L55.1348 6.77539L49.302 7.90917L55.863 41.6626L61.6958 40.5288Z" fill="#00F5FF"/>
<path d="M62.1257 40.5004L56.1548 6.63757L50.3031 7.66939L56.274 41.5322L62.1257 40.5004Z" fill="#00F1FF"/>
<path d="M62.5563 40.4794L57.1772 6.51758L51.3084 7.44711L56.6875 41.409L62.5563 40.4794Z" fill="#00EDFF"/>
<path d="M62.9872 40.466L58.2017 6.41541L52.3175 7.24237L57.103 41.2929L62.9872 40.466Z" fill="#00E9FF"/>
<path d="M63.4176 40.46L59.2271 6.33112L53.3294 7.05526L57.5199 41.1842L63.4176 40.46Z" fill="#00E4FF"/>
<path d="M63.8486 40.4616L60.2544 6.26477L54.345 6.88588L57.9392 41.0827L63.8486 40.4616Z" fill="#00E0FF"/>
<path d="M64.2796 40.4707L61.2827 6.21637L55.3633 6.73425L58.3602 40.9886L64.2796 40.4707Z" fill="#00DCFF"/>
<path d="M64.7101 40.4873L62.3115 6.18585L56.384 6.60034L58.7826 40.9018L64.7101 40.4873Z" fill="#00D8FF"/>
<path d="M65.1399 40.5114L63.3403 6.17334L57.4065 6.48432L59.2061 40.8224L65.1399 40.5114Z" fill="#00D4FF"/>
<path d="M65.5697 40.5431L64.3696 6.17883L58.4313 6.38621L59.6313 40.7505L65.5697 40.5431Z" fill="#00CFFF"/>
<path d="M65.999 40.5822L65.3989 6.20227L59.4579 6.30597L60.058 40.6859L65.999 40.5822Z" fill="#00CBFF"/>
<path d="M66.4272 40.6288V6.24359H60.4853V40.6288H66.4272Z" fill="#00C7FF"/>
<path d="M66.8545 40.6829L67.4546 6.30292L61.5135 6.19922L60.9134 40.5792L66.8545 40.6829Z" fill="#00C3FF"/>
<path d="M67.2809 40.7444L68.481 6.38019L62.5426 6.17282L61.3426 40.5371L67.2809 40.7444Z" fill="#00BEFF"/>
<path d="M67.7063 40.8133L69.5059 6.47528L63.572 6.1643L61.7724 40.5024L67.7063 40.8133Z" fill="#00BAFF"/>
<path d="M68.1302 40.8898L70.5288 6.58832L64.6013 6.17383L62.2027 40.4753L68.1302 40.8898Z" fill="#00B6FF"/>
<path d="M68.5529 40.9735L71.5498 6.71918L65.6304 6.2013L62.6336 40.4556L68.5529 40.9735Z" fill="#00B2FF"/>
<path d="M68.9741 41.0646L72.5684 6.8678L66.6589 6.24669L63.0647 40.4435L68.9741 41.0646Z" fill="#00ADFF"/>
<path d="M69.3935 41.1631L73.584 7.03424L67.6863 6.3101L63.4958 40.439L69.3935 41.1631Z" fill="#00A9FF"/>
<path d="M69.8112 41.2689L74.5967 7.21832L68.7125 6.39136L63.927 40.4419L69.8112 41.2689Z" fill="#00A5FF"/>
<path d="M70.2269 41.3819L75.606 7.42004L69.7371 6.49051L64.3581 40.4524L70.2269 41.3819Z" fill="#00A1FF"/>
<path d="M70.6409 41.5022L76.6118 7.6394L70.7601 6.60759L64.7892 40.4704L70.6409 41.5022Z" fill="#009CFF"/>
<path d="M71.0523 41.6297L77.6133 7.87622L71.7805 6.74244L65.2195 40.4959L71.0523 41.6297Z" fill="#0098FF"/>
<path d="M71.4618 41.7643L78.6108 8.13049L72.7987 6.89509L65.6496 40.5289L71.4618 41.7643Z" fill="#0094FF"/>
<path d="M71.8685 41.9061L79.6035 8.40216L73.8138 7.06551L66.0788 40.5694L71.8685 41.9061Z" fill="#0090FF"/>
<path d="M72.2728 42.0549L80.5913 8.6911L74.8258 7.25361L66.5073 40.6174L72.2728 42.0549Z" fill="#008BFF"/>
<path d="M72.6747 42.2108L81.5742 8.99725L75.8347 7.45936L66.9352 40.6729L72.6747 42.2108Z" fill="#0087FF"/>
<path d="M73.0734 42.3737L82.5513 9.3205L76.8395 7.68266L67.3616 40.7358L73.0734 42.3737Z" fill="#0083FF"/>
<path d="M73.4692 42.5435L83.5225 9.66077L77.8401 7.9235L67.7869 40.8062L73.4692 42.5435Z" fill="#007FFF"/>
<path d="M73.8622 42.7202L84.4878 10.0179L78.8366 8.18177L68.211 40.884L73.8622 42.7202Z" fill="#007BFF"/>
<path d="M74.2521 42.9037L85.4468 10.3918L79.8285 8.45733L68.6338 40.9692L74.2521 42.9037Z" fill="#0076FF"/>
<path d="M74.6385 43.094L86.3989 10.7825L80.8153 8.75019L69.0549 41.0617L74.6385 43.094Z" fill="#0072FF"/>
<path d="M75.0217 43.291L87.3442 11.1896L81.7969 9.06022L69.4744 41.1616L75.0217 43.291Z" fill="#006EFF"/>
<path d="M75.4013 43.4947L88.2822 11.6133L82.7729 9.38738L69.892 41.2688L75.4013 43.4947Z" fill="#006AFF"/>
<path d="M75.7775 43.705L89.2129 12.0532L83.7433 9.73151L70.3079 41.3832L75.7775 43.705Z" fill="#0065FF"/>
<path d="M76.15 43.9217L90.1357 12.5093L84.7075 10.0925L70.7218 41.5049L76.15 43.9217Z" fill="#0061FF"/>
<path d="M76.5185 44.145L91.0503 12.9814L85.665 10.4703L71.1332 41.6338L76.5185 44.145Z" fill="#005DFF"/>
<path d="M76.8831 44.3746L91.9565 13.4694L86.6159 10.8646L71.5425 41.7698L76.8831 44.3746Z" fill="#0059FF"/>
<path d="M77.2435 44.6106L92.854 13.9732L87.5597 11.2756L71.9491 41.913L77.2435 44.6106Z" fill="#0054FF"/>
<path d="M77.5998 44.8529L93.7427 14.4926L88.4962 11.703L72.3533 42.0633L77.5998 44.8529Z" fill="#0050FF"/>
<path d="M77.9518 45.1013L94.6221 15.0273L89.4251 12.1466L72.7548 42.2206L77.9518 45.1013Z" fill="#004CFF"/>
<path d="M78.2996 45.3558L95.4922 15.5774L90.3463 12.6064L73.1537 42.3849L78.2996 45.3558Z" fill="#0048FF"/>
<path d="M78.6424 45.6164L96.3521 16.1425L91.2588 13.0822L73.5491 42.556L78.6424 45.6164Z" fill="#0043FF"/>
<path d="M78.9813 45.8829L97.2026 16.7226L92.1636 13.5738L73.9422 42.7341L78.9813 45.8829Z" fill="#003FFF"/>
<path d="M79.315 46.1553L98.0425 17.3174L93.0591 14.0812L74.3316 42.9191L79.315 46.1553Z" fill="#003BFF"/>
<path d="M79.6441 46.4334L98.8721 17.9268L93.9459 14.6041L74.718 43.1107L79.6441 46.4334Z" fill="#0037FF"/>
<path d="M79.9679 46.7173L99.6904 18.5506L94.823 15.1424L75.1005 43.3091L79.9679 46.7173Z" fill="#0032FF"/>
<path d="M80.2874 47.0067L100.499 19.1885L95.6914 15.6959L75.4803 43.5141L80.2874 47.0067Z" fill="#002EFF"/>
<path d="M80.6014 47.3018L101.295 19.8405L96.5494 16.2645L75.8559 43.7258L80.6014 47.3018Z" fill="#002AFF"/>
<path d="M80.91 47.6022L102.08 20.5063L97.3972 16.848L76.2276 43.9439L80.91 47.6022Z" fill="#0026FF"/>
<path d="M81.2137 47.908L102.853 21.1857L98.2352 17.4463L76.5959 44.1686L81.2137 47.908Z" fill="#0022FF"/>
<path d="M65.2831 122.077H61.9077C61.7511 122.02 61.594 122.005 61.436 122.005C59.6339 121.92 57.8448 121.775 56.0715 121.534C52.7541 121.105 49.4923 120.375 46.3173 119.361C40.8682 117.617 35.7909 115.115 31.0853 111.854C26.7219 108.822 22.8617 105.247 19.5 101.13C15.5368 96.2966 12.4486 90.9625 10.2593 85.1012C8.29923 79.8964 7.12675 74.5068 6.76837 68.9438C6.76837 68.6435 6.71144 68.3432 6.61182 68.0429V62.166C6.71144 61.9069 6.75414 61.6365 6.76837 61.3652C6.83954 60.0351 6.98186 58.7049 7.1555 57.3904C8.01429 51.0421 9.90097 45.0208 12.805 39.3153C14.8072 35.3825 17.239 31.7236 20.0983 28.3471C22.9306 25.0019 26.1059 22.0122 29.6233 19.3962C35.3591 15.1344 41.667 12.0604 48.5601 10.1741C51.9064 9.26004 55.326 8.65943 58.7859 8.3725C59.4002 8.31557 60.0452 8.3725 60.6595 8.21594H66.4376C66.8805 8.34404 67.3388 8.27287 67.7815 8.31557C70.0712 8.51483 72.345 8.80261 74.6034 9.24524C81.7123 10.6466 88.3049 13.3069 94.399 17.2371C99.1339 20.2826 103.31 23.9572 106.957 28.2324C109.889 31.6644 112.377 35.3968 114.408 39.4274C116.811 44.1899 118.527 49.179 119.501 54.4263C120.015 57.1999 120.402 60.0026 120.416 62.8341C120.416 63.0219 120.458 63.2212 120.472 63.4056V66.7805C120.416 66.9939 120.416 67.2231 120.401 67.452C120.401 67.9948 120.401 68.5399 120.359 69.0824C120.1 72.5435 119.558 75.9602 118.699 79.3345C117.054 85.6694 114.407 91.5463 110.731 96.9646C107.999 100.997 104.81 104.63 101.148 107.846C97.5014 111.049 93.5097 113.752 89.1756 115.938C84.1828 118.454 78.9341 120.2 73.4272 121.157C71.3112 121.528 69.1797 121.771 67.0348 121.9C66.4698 121.965 65.8703 121.951 65.2831 122.077Z" fill="#383838"/>
<path style="mix-blend-mode:lighten" d="M48.7348 41.5245C48.695 42.5706 48.8808 43.7141 49.189 44.8579C49.7762 47.0342 50.7493 49.0283 51.8968 50.9118C54.5108 55.1952 57.8057 58.8624 61.3807 62.2672C61.6735 62.5471 62.022 62.7834 62.3952 62.9636C62.7689 63.158 63.1422 63.158 63.5284 62.9913C63.9016 62.8247 64.2355 62.5875 64.5158 62.2796C65.7565 60.9969 66.9828 59.7123 68.1571 58.3866C69.8108 56.503 71.3857 54.5653 72.8129 52.4865C74.1078 50.6032 75.2675 48.6219 76.1203 46.4737C76.9732 44.3385 77.3878 42.1361 77.1078 39.8205C76.6409 35.9994 75.0809 32.7618 72.2924 30.2231C68.9954 27.2263 65.155 26.0264 60.8331 26.6948C53.8037 27.7842 48.7078 34.2573 48.7348 41.5245Z" fill="url(#paint0_radial_804_2799)"/>
<path d="M85.1136 93.6075C84.2288 93.6343 83.2354 93.5249 82.2422 93.3139C79.3039 92.6707 76.8081 91.3347 74.8902 88.9661C73.7237 87.5217 72.7431 85.9564 71.8979 84.3101C70.9042 82.3703 70.0739 80.3493 69.3498 78.3035C68.4651 75.8289 67.7138 73.3002 67.1355 70.7444C66.8143 69.3125 67.1754 68.4154 68.759 67.9222C70.7707 67.2936 72.7973 66.7316 74.8632 66.2759C78.2835 65.5264 81.731 65.0456 85.2473 65.1642C86.2408 65.204 87.232 65.3106 88.2127 65.4846C91.057 65.9802 93.4713 67.2914 95.4432 69.3644C98.8114 72.8964 100.151 77.1108 99.3206 81.9146C98.1269 88.7789 92.0355 93.6615 85.1136 93.6075Z" fill="url(#paint1_radial_804_2799)"/>
<path d="M40.8102 93.6075C41.6949 93.6343 42.6884 93.5249 43.6815 93.3139C46.6199 92.6707 49.1156 91.3347 51.0336 88.9661C52.2 87.5217 53.1806 85.9564 54.0259 84.3101C55.0196 82.3703 55.8499 80.3493 56.5739 78.3035C57.4587 75.8289 58.2099 73.3002 58.7882 70.7444C59.1094 69.3125 58.7484 68.4154 57.1647 67.9222C55.153 67.2936 53.1264 66.7316 51.0605 66.2759C47.6403 65.5264 44.1928 65.0456 40.6764 65.1642C39.683 65.204 38.6917 65.3106 37.7111 65.4846C34.8667 65.9802 32.4524 67.2914 30.4805 69.3644C27.1123 72.8964 25.7726 77.1108 26.6032 81.9146C27.7968 88.7789 33.8882 93.6615 40.8102 93.6075Z" fill="url(#paint2_radial_804_2799)"/>
</g>
<defs>
<radialGradient id="paint0_radial_804_2799" cx="0" cy="0" r="1" gradientUnits="userSpaceOnUse" gradientTransform="translate(63.2375 61.2159) rotate(4.82254) scale(15.1183 27.9462)">
<stop stop-color="white"/>
<stop offset="1" stop-color="#009BD8"/>
</radialGradient>
<radialGradient id="paint1_radial_804_2799" cx="0" cy="0" r="1" gradientUnits="userSpaceOnUse" gradientTransform="translate(67.1864 69.8696) rotate(21.7759) scale(33.3389 17.8155)">
<stop stop-color="white"/>
<stop offset="1" stop-color="#FF3044"/>
</radialGradient>
<radialGradient id="paint2_radial_804_2799" cx="0" cy="0" r="1" gradientUnits="userSpaceOnUse" gradientTransform="translate(58.5605 68.6616) rotate(146.321) scale(33.6913 15.3145)">
<stop stop-color="white"/>
<stop offset="1" stop-color="#FCFF7C"/>
</radialGradient>
<clipPath id="clip0_804_2799">
<rect width="128" height="128" fill="white"/>
</clipPath>
</defs>
</svg>
