<svg width="221" height="96" viewBox="0 0 221 96" fill="none" xmlns="http://www.w3.org/2000/svg">
<path fill-rule="evenodd" clip-rule="evenodd" d="M45.4432 70.1891C34.3668 70.1891 28.8776 63.5456 26.7212 56.5958C29.1227 67.8916 42.1105 78.9003 83.0833 83.7824C121.802 88.4348 146.993 76.7752 155.521 71.3378C155.521 71.3378 161.265 68.8489 157.824 72.6972C157.824 72.6972 133.417 94.8102 85.6808 95.0974C37.8466 95.3233 -0.0875865 71.6441 0.108456 47.6165C-0.120914 23.6846 37.8466 -0.0557834 85.6808 0.135672C133.515 0.361589 157.824 22.5359 157.824 22.5359C161.275 26.3746 155.521 23.8953 155.521 23.8953C147.013 18.4771 121.9 7.81303 83.0833 11.4507C44.9531 15.0692 32.5044 27.8201 28.2895 36.3398C26.7016 39.6424 25.9762 42.7631 25.7998 45.8934C26.829 37.6992 32.0143 28.0881 45.404 28.0881C60.5973 28.0881 65.2042 40.5327 65.2042 49.0524C65.2042 57.6679 60.5678 70.1125 45.404 70.1125L45.4432 70.1891ZM199.336 61.9086H219.529V69.1361H190.808V29.2177H199.297V61.8608L199.336 61.9086ZM168.166 47.6453H185.123V69.184H179.467L178.619 64.1774C176.472 66.628 173.355 70.2369 165.974 70.2369C156.191 70.2369 147.35 63.3446 147.35 49.3684C147.35 38.4554 153.515 28.2126 167.248 28.2126C179.697 28.2126 184.598 36.158 185.088 41.6144H176.599C176.599 40.0637 173.717 35.0571 167.719 35.0571C161.671 35.0571 156.054 39.1734 156.054 49.4162C156.054 60.3291 162.102 63.1052 167.915 63.1052C169.777 63.1052 176.001 62.3825 177.717 54.327H168.267V47.6069L168.166 47.6453ZM45.6392 32.999C36.8173 32.999 31.5242 39.8339 31.5242 49.2726C31.5242 58.6635 36.8369 65.5463 45.6392 65.5463C54.4611 65.5463 59.7543 58.7114 59.7543 49.2726C59.7543 39.8818 54.4415 32.999 45.6392 32.999ZM68.4781 43.6247H72.595V47.2336H72.694C73.733 45.769 75.7229 42.8876 80.4377 42.8876C87.3384 42.8876 92.2982 48.6312 92.2982 55.8108C92.2982 61.9086 88.7205 69.8828 79.8496 69.8828C76.3698 69.8828 74.0859 68.2745 72.9489 66.4653H72.8499V79.2928H68.4781V43.6821V43.6247ZM79.5545 66.2164C84.3183 66.2164 87.553 62.1576 87.553 56.5479C87.553 53.274 86.2101 46.7837 79.4565 46.7837C73.1537 46.7837 72.4578 53.4655 72.4578 57.6009C72.4578 64.3784 76.7805 66.1877 79.5545 66.1877V66.2164ZM118.763 61.1907C118.613 62.4064 117.42 66.025 114.146 68.1693C112.95 68.9504 111.264 69.9306 107.098 69.9306C99.7959 69.9306 95.4339 64.5125 95.4339 57.1032C95.4339 49.1961 99.3058 42.9355 107.883 42.9355C115.381 42.9355 119.057 48.794 119.057 57.869H100.041C100.041 63.1914 102.57 66.2643 107.589 66.2643C111.705 66.2643 114.146 63.1436 114.293 61.2386H118.665L118.763 61.1907ZM114.136 54.4132C113.888 50.4597 112.196 46.8029 106.883 46.8029C102.864 46.8029 99.688 50.4597 99.688 54.4132H114.097H114.136ZM143.249 69.1552H138.877V53.4559C138.877 49.0142 137.583 46.7741 133.319 46.7741C130.839 46.7741 126.467 48.3345 126.467 55.2651V69.1456H122.096V43.5864H126.222V47.1953H126.321C127.265 45.8264 129.693 42.8493 134.163 42.8493C138.182 42.8493 143.25 44.4575 143.25 51.7328V69.1552" fill="#5E4F64"/>
</svg>
