<svg width="99" height="96" viewBox="0 0 99 96" fill="none" xmlns="http://www.w3.org/2000/svg">
<g clip-path="url(#clip0_744_784)">
<path fill-rule="evenodd" clip-rule="evenodd" d="M81.0256 0H17.4359C7.79487 0 0 7.79487 0 17.4359V78.5641C0 88.2051 7.79487 96 17.4359 96H81.0256C90.6667 96 98.4615 88.2051 98.4615 78.5641V17.4359C98.4615 7.79487 90.6667 0 81.0256 0ZM39.5487 57.436H24.2871L21.1692 67.118C21.0871 67.4873 20.7589 67.7334 20.3897 67.6924H12.6769C12.2256 67.6924 12.1025 67.4462 12.2256 66.9539L25.4359 29.0873C25.5589 28.6771 25.682 28.308 25.846 27.8159L25.8461 27.8156L25.8461 27.8155C26.0102 26.9539 26.0923 26.0514 26.0923 25.1488C26.0513 24.9437 26.2154 24.7385 26.4205 24.6975H26.5436H37.0461C37.3333 24.6975 37.5384 24.8206 37.5795 25.0257L52.5538 66.8719C52.6769 67.3232 52.5538 67.5283 52.1436 67.5283H43.5692C43.282 67.5693 42.9948 67.3642 42.9128 67.077L39.5487 57.2308V57.436ZM26.6666 49.2719H37.0872C36.841 48.4103 36.5128 47.3847 36.1436 46.318C35.7743 45.2103 35.4051 44.0206 35.0359 42.7898C34.8307 42.1539 34.6359 41.5283 34.441 40.9026C34.2461 40.277 34.0513 39.6514 33.8461 39.0155C33.4359 37.7437 33.0666 36.5539 32.7384 35.3642C32.5932 34.8558 32.456 34.3635 32.3232 33.8873L32.323 33.8863C32.1559 33.2868 31.9959 32.7128 31.8359 32.1642H31.7538C31.3846 33.9283 30.9333 35.6924 30.3589 37.4565C30.1245 38.2066 29.8901 38.9685 29.6535 39.7379L29.6535 39.738C29.2688 40.9884 28.8781 42.2584 28.4718 43.5283C27.9384 45.6206 27.282 47.5488 26.6666 49.2719ZM76.7178 53.7436H63.7127C63.8768 55.0154 64.2871 56.2871 64.9845 57.3948C65.723 58.5025 66.7486 59.3641 67.9794 59.8564C69.6204 60.5538 71.4255 60.923 73.2307 60.882C74.6666 60.841 76.1025 60.7179 77.4973 60.4307C78.7691 60.2666 79.9999 59.9384 81.1486 59.4871C81.3537 59.323 81.4768 59.4051 81.4768 59.8153V66.0923C81.4768 66.2564 81.4358 66.4205 81.3948 66.5846C81.3127 66.7077 81.2307 66.7897 81.1076 66.8718C79.7948 67.4461 78.4409 67.8564 77.005 68.1025C75.0768 68.4718 73.1486 68.6359 71.1794 68.5948C68.0614 68.5948 65.4358 68.1025 63.3025 67.1589C61.2922 66.2974 59.5281 64.9436 58.1332 63.2615C56.8204 61.6615 55.8768 59.8564 55.3025 57.8871C54.7281 55.9589 54.4409 53.9487 54.4409 51.8974C54.4409 49.682 54.7691 47.5077 55.4666 45.3743C56.123 43.323 57.1486 41.4359 58.5435 39.7538C59.8973 38.1128 61.5794 36.8 63.5076 35.8564C65.4358 34.9128 67.7332 34.5846 70.3589 34.5846C72.5332 34.5436 74.7076 34.9538 76.7178 35.8564C78.3999 36.5948 79.8768 37.7025 81.0255 39.1384C82.0922 40.5333 82.9537 42.0923 83.4871 43.8153C84.0204 45.4564 84.2666 47.1384 84.2666 48.8205C84.2666 49.8051 84.2255 50.6666 84.1845 51.4461C84.139 51.878 84.1062 52.2469 84.0789 52.5529L84.0788 52.5539L84.0788 52.5542C84.0569 52.7999 84.0387 53.0048 84.0204 53.1692C83.9794 53.4564 83.7332 53.7025 83.446 53.7025C83.2863 53.7025 83.0403 53.7198 82.7079 53.7431L82.7077 53.7431L82.7068 53.7432C82.5271 53.7558 82.3223 53.7702 82.0922 53.7846C81.4358 53.8666 80.6563 53.9077 79.7127 53.9077C79.2554 53.9077 78.7884 53.8691 78.3072 53.8294L78.3071 53.8294L78.307 53.8294C77.7953 53.7871 77.2675 53.7436 76.7178 53.7436ZM63.7127 47.7538H72.3691C73.4358 47.7538 74.2153 47.7538 74.7076 47.7128C75.0358 47.6718 75.364 47.5897 75.6512 47.3846V46.9743C75.6512 46.441 75.5691 45.9487 75.405 45.4564C74.6666 43.1589 72.4922 41.6 70.0717 41.682C67.8153 41.5589 65.6819 42.7487 64.6153 44.8C64.123 45.7436 63.8358 46.7282 63.7127 47.7538Z" fill="#5E4F64"/>
</g>
<defs>
<clipPath id="clip0_744_784">
<rect width="98.4615" height="96" fill="white"/>
</clipPath>
</defs>
</svg>
