<svg width="98" height="96" viewBox="0 0 98 96" fill="none" xmlns="http://www.w3.org/2000/svg">
<path fill-rule="evenodd" clip-rule="evenodd" d="M47.0689 95.9868H49.906C50.218 95.9202 50.5342 95.9003 50.8445 95.8808C51.0251 95.8694 51.2037 95.8582 51.3784 95.8379C53.1812 95.7296 54.9727 95.5257 56.7513 95.2135C61.3799 94.4096 65.7916 92.942 69.9881 90.8275C73.631 88.9898 76.986 86.718 80.0511 84.0257C83.1294 81.3224 85.8093 78.2692 88.1059 74.8797C91.1954 70.3255 93.4207 65.3859 94.8029 60.0612C95.5247 57.2251 95.9802 54.3533 96.198 51.4442C96.2338 50.9882 96.2338 50.5301 96.2338 50.0738C96.2362 50.0357 96.2381 49.9975 96.24 49.9595C96.2477 49.8056 96.2553 49.6533 96.2937 49.5094V46.6728C96.289 46.6121 96.2806 46.5494 96.2722 46.4862C96.2591 46.388 96.2458 46.2884 96.2458 46.1924C96.2348 43.8125 95.9094 41.4568 95.4773 39.1255C94.6581 34.7151 93.2161 30.5217 91.1966 26.5187C89.489 23.1309 87.3984 19.9938 84.9334 17.1091C81.8683 13.5157 78.3582 10.4272 74.3784 7.86737C69.2562 4.56398 63.7151 2.32791 57.7399 1.15006C55.8417 0.778016 53.9305 0.536129 52.0059 0.368651C51.8706 0.355599 51.7336 0.355205 51.5961 0.35481C51.3554 0.354118 51.1133 0.353422 50.8764 0.284912H46.0198C45.6835 0.370629 45.3362 0.380207 44.9922 0.389693C44.8081 0.39477 44.625 0.399821 44.445 0.416502C41.5369 0.657671 38.6627 1.1625 35.85 1.93074C30.0562 3.51628 24.7544 6.1 19.9334 9.68212C16.9769 11.8809 14.308 14.3938 11.9274 17.2055C9.52413 20.0435 7.48018 23.1189 5.79726 26.4244C3.35638 31.2201 1.7706 36.281 1.04877 41.6169C0.902828 42.7217 0.7832 43.8398 0.723386 44.9578C0.711424 45.1858 0.675536 45.4131 0.591797 45.6308V50.5705C0.675536 50.8229 0.723386 51.0753 0.723386 51.3277C1.02461 56.0035 2.0101 60.5335 3.65761 64.9083C5.49771 69.8348 8.09339 74.3182 11.4245 78.3807C14.2501 81.8413 17.4947 84.8456 21.1622 87.3942C25.1173 90.1351 29.3849 92.2384 33.9649 93.704C36.6336 94.5565 39.3752 95.1697 42.1635 95.5305C43.654 95.7332 45.1578 95.8552 46.6725 95.9269C46.8053 95.9269 46.9374 95.9389 47.0689 95.9868ZM36.3784 31.0831C36.1193 30.1217 35.9631 29.1605 35.9966 28.2813C35.9739 22.1731 40.2571 16.7323 46.1654 15.8167C49.798 15.2549 53.026 16.2634 55.7972 18.7823C58.1409 20.9161 59.4521 23.6373 59.8446 26.849C60.0799 28.7954 59.7314 30.6465 59.0146 32.4412C58.2978 34.2468 57.323 35.9121 56.2347 37.4951C55.035 39.2423 53.7113 40.871 52.3214 42.4542C51.3344 43.5685 50.3036 44.6482 49.2608 45.7263C49.0252 45.9851 48.7445 46.1845 48.4308 46.3245C48.1062 46.4646 47.7925 46.4646 47.4784 46.3013C47.1647 46.1498 46.8718 45.9511 46.6257 45.7159C43.6209 42.8541 40.8514 39.7718 38.6543 36.1715C37.6898 34.5883 36.8719 32.9123 36.3784 31.0831ZM64.1603 71.8112C64.9951 71.9885 65.8301 72.0805 66.5737 72.058C72.3918 72.1034 77.5117 67.9994 78.515 62.2299C79.2131 58.1922 78.087 54.65 75.256 51.6812C73.5986 49.9389 71.5693 48.8368 69.1786 48.4202C68.3544 48.274 67.5212 48.1844 66.6862 48.1509C63.7306 48.0512 60.8329 48.4553 57.9581 49.0853C56.2217 49.4683 54.5183 49.9407 52.8274 50.469C51.4964 50.8836 51.1929 51.6376 51.4629 52.8411C51.9489 54.9894 52.5804 57.1148 53.324 59.1947C53.9326 60.9142 54.6305 62.613 55.4657 64.2434C56.1762 65.6271 57.0004 66.9428 57.9808 68.1568C59.5929 70.1477 61.6906 71.2706 64.1603 71.8112ZM29.3361 72.058C30.0797 72.0805 30.9147 71.9885 31.7495 71.8112C34.2192 71.2706 36.3169 70.1477 37.929 68.1568C38.9094 66.9428 39.7336 65.6271 40.4441 64.2434C41.2793 62.613 41.9772 60.9142 42.5858 59.1947C43.3294 57.1148 43.9609 54.9894 44.4469 52.8411C44.7169 51.6376 44.4134 50.8836 43.0824 50.469C41.3915 49.9407 39.6881 49.4683 37.9517 49.0853C35.0769 48.4553 32.1792 48.0512 29.2236 48.1509C28.3887 48.1844 27.5555 48.274 26.7312 48.4202C24.3405 48.8368 22.3112 49.9389 20.6538 51.6812C17.8228 54.65 16.6967 58.1922 17.3948 62.2299C18.3981 67.9994 23.518 72.1034 29.3361 72.058Z" fill="#5E4F64"/>
</svg>
