<svg width="86" height="96" viewBox="0 0 86 96" fill="none" xmlns="http://www.w3.org/2000/svg">
<g clip-path="url(#clip0_744_375)">
<path d="M43.2508 12.8801C43.7277 9.94205 41.7324 7.17368 38.7943 6.69681C35.8562 6.21994 33.0879 8.21516 32.611 11.1533C32.1341 14.0913 34.1294 16.8597 37.0674 17.3366C40.0055 17.8135 42.7739 15.8182 43.2508 12.8801Z" fill="#5E4F64"/>
<path d="M77.445 89.3588C82.1363 89.3588 85.9393 85.5557 85.9393 80.8644C85.9393 76.1732 82.1363 72.3701 77.445 72.3701C72.7537 72.3701 68.9507 76.1732 68.9507 80.8644C68.9507 85.5557 72.7537 89.3588 77.445 89.3588Z" fill="#5E4F64"/>
<path d="M3.74922 84.6137C5.81986 84.6137 7.49844 82.9351 7.49844 80.8645C7.49844 78.7938 5.81986 77.1152 3.74922 77.1152C1.67858 77.1152 0 78.7938 0 80.8645C0 82.9351 1.67858 84.6137 3.74922 84.6137Z" fill="#5E4F64"/>
<path d="M37.9024 23.1028C19.7421 23.1028 5.03809 37.8068 5.03809 55.9671C5.03809 74.1274 19.7421 88.8313 37.9024 88.8313C56.0627 88.8313 70.7666 74.1274 70.7666 55.9671C70.7666 37.8068 56.0627 23.1028 37.9024 23.1028V23.1028ZM15.6414 43.1963L37.8438 30.3669L59.9876 43.1963V54.7954L49.7944 51.5149V49.113L37.8438 42.2004L29.0565 47.297L59.9876 57.1973V68.7964L37.7852 81.6258L15.5828 68.855V57.1973L25.8346 60.4193V62.8211L37.7852 69.7337L46.6896 64.5786L15.6414 54.7368V43.1963Z" fill="#5E4F64"/>
</g>
<defs>
<clipPath id="clip0_744_375">
<rect width="85.9392" height="96" fill="white"/>
</clipPath>
</defs>
</svg>
