<svg width="84" height="96" viewBox="0 0 84 96" fill="none" xmlns="http://www.w3.org/2000/svg">
<g clip-path="url(#clip0_744_384)">
<path fill-rule="evenodd" clip-rule="evenodd" d="M83.6226 28.1212C83.5826 26.6447 83.247 25.3324 82.609 24.1963C81.9405 23.004 80.9394 22.005 79.5966 21.2151C74.8465 18.433 70.0944 15.6545 65.3423 12.876L65.3407 12.8751L65.3296 12.8686C58.9969 9.16591 52.6641 5.46323 46.3361 1.75192C43.3487 7.92742e-05 40.4523 0.0642762 37.4871 1.84127C34.8312 3.43208 25.7697 8.72351 17.5411 13.5285L17.5406 13.5288L17.5401 13.5291L17.5369 13.531L17.5334 13.533C12.0956 16.7084 7.02252 19.6708 4.40384 21.2115C1.69308 22.8058 0.374027 25.2453 0.373376 28.4158C0.371258 34.9438 0.371258 41.4719 0.371258 47.9999C0.371258 54.528 0.371258 61.056 0.369141 67.5841C0.369141 69.1472 0.691945 70.5323 1.34244 71.7259L1.34229 71.726C1.88205 72.717 2.64741 73.5768 3.6448 74.2963C3.80608 74.4127 3.97343 74.5253 4.14687 74.6343C4.22986 74.6865 4.31422 74.7378 4.39999 74.7882C7.00679 76.3218 12.0459 79.264 17.456 82.4227L17.9785 82.7278C19.3571 83.5327 20.7553 84.349 22.1394 85.1574C27.8581 88.4974 33.3368 91.7008 36.1986 93.3934C36.7188 93.7011 37.1525 93.9589 37.4855 94.1584L37.4858 94.1586C38.2274 94.6031 38.9647 94.9404 39.7001 95.169C41.9063 95.8548 44.0958 95.562 46.3371 94.2479C52.7698 90.4751 59.2075 86.7113 65.6453 82.9475L65.6791 82.9278L65.6892 82.9218C70.3267 80.2105 74.9643 77.4992 79.6001 74.7844C80.9739 73.9769 81.989 72.9498 82.6579 71.7228C83.3074 70.5288 83.6309 69.144 83.6309 67.5804C83.631 67.5804 83.631 41.4752 83.6267 28.4187C83.6267 28.3188 83.6253 28.2197 83.6226 28.1212ZM66.14 38.9554V43.4141H70.5295V38.9554H72.7242V43.4141H77.1137V45.6435H72.7242V50.1018H77.1137V52.3312H72.7242V56.7899H70.5295V52.3312H66.14V56.7899H63.9453V52.3312H59.5561V50.1018H63.9453V45.6435H59.5561V43.4141H63.9453V38.9554H66.14ZM70.5295 45.6431H66.14V50.1018H70.5295V45.6431ZM69.0156 32.267C63.6615 22.8791 53.6658 16.5633 42.2169 16.5633L42.2165 16.563C25.1239 16.563 11.2681 30.638 11.2681 47.9996C11.2681 53.6955 12.7598 59.0368 15.3669 63.644C20.7077 73.0816 30.7317 79.4365 42.2169 79.4365L42.5615 79.4345C53.8773 79.3091 63.7361 73.0128 69.0316 63.7043L55.5815 55.7896C55.603 55.7516 55.6244 55.7136 55.6456 55.6754L55.5814 55.7895L55.5815 55.7896C52.9223 60.4876 47.9345 63.6536 42.2169 63.6536C36.4885 63.6536 31.4947 60.4766 28.8383 55.766C27.5038 53.4023 26.803 50.7244 26.8058 47.9996C26.8058 39.3545 33.7057 32.3458 42.2165 32.3458L42.3925 32.3468C47.9739 32.4103 52.839 35.4908 55.4928 40.055L68.9635 32.1767L69.0156 32.267Z" fill="#5E4F64"/>
</g>
<defs>
<clipPath id="clip0_744_384">
<rect width="84" height="96" fill="white"/>
</clipPath>
</defs>
</svg>
