<svg width="116" height="96" viewBox="0 0 116 96" fill="none" xmlns="http://www.w3.org/2000/svg">
<g clip-path="url(#clip0_744_373)">
<path d="M114.86 53.4591C114.185 48.5878 112.537 43.9681 109.963 39.73C107.718 36.0312 104.837 32.7415 101.398 29.9455L101.408 29.9368L65.2945 1.52696C65.2684 1.50348 65.2413 1.48136 65.2131 1.46069C64.0124 0.518617 62.3868 0.000244141 60.6375 0.000244141C58.8859 0.000244141 57.1967 0.519771 55.8835 1.46369C54.4716 2.47388 53.6646 3.81426 53.6082 5.241C53.5566 6.57214 54.1766 7.85295 55.3585 8.85136C57.6827 10.7297 60.0017 12.649 62.3239 14.5705C64.5776 16.4362 66.8998 18.3575 69.2107 20.2281L24.9778 20.1974C19.9193 20.1974 16.4749 22.6304 15.7664 26.7037C15.4551 28.4879 16.0044 30.4496 17.2326 31.9521C18.5356 33.5448 20.4274 34.4234 22.5593 34.4234L25.9314 34.4257C30.5897 34.4257 35.2686 34.4139 39.9411 34.4024L44.397 34.3918L4.25193 64.8125L4.09255 64.9319C1.85017 66.6922 0.382149 69.1603 0.065416 71.7028C-0.17467 73.629 0.264022 75.3891 1.3346 76.7948C2.61055 78.4707 4.60271 79.3925 6.9445 79.3925C9.24505 79.3925 11.5925 78.4996 13.5574 76.8738L35.2364 58.7019C35.1437 59.5893 35.0312 60.8911 35.0441 61.8359C35.0684 63.3319 35.5373 66.3337 36.2797 68.7706C37.8135 73.7788 40.3972 78.361 43.9586 82.3852C47.6642 86.5719 52.1774 89.8915 57.3718 92.2497C62.8634 94.7374 68.7668 96.0002 74.9186 96.0002H74.9757C81.1471 95.985 87.0693 94.7021 92.5786 92.186C97.7816 89.7999 102.293 86.4668 105.984 82.2808C109.541 78.2361 112.121 73.6463 113.652 68.6422C114.41 66.1651 114.895 63.6091 115.099 61.0218C115.288 58.5211 115.206 55.9766 114.86 53.4591V53.4591ZM75.3684 77.4633C61.8106 77.4633 50.8163 67.3898 50.8163 54.9627C50.8163 42.537 61.8108 32.4635 75.3684 32.4635C88.9264 32.4635 99.9196 42.537 99.9196 54.9627C99.9201 67.3898 88.9264 77.4633 75.3684 77.4633ZM89.5272 52.9855C89.7271 56.6945 88.2807 60.1383 85.7408 62.6877C83.1571 65.2849 79.4704 66.9162 75.3476 66.9162C71.2267 66.9162 67.5393 65.2849 64.9547 62.6877C62.4159 60.1383 60.9725 56.6949 61.1713 52.9885C61.3661 49.3858 63.0818 46.2056 65.6662 43.9538C68.2075 41.7397 71.6199 40.3889 75.3474 40.3889C79.0754 40.3889 82.4869 41.7402 85.0284 43.9538C87.6141 46.2056 89.3304 49.3835 89.5272 52.9855V52.9855Z" fill="#5E4F64"/>
</g>
<defs>
<clipPath id="clip0_744_373">
<rect width="115.2" height="96" fill="white"/>
</clipPath>
</defs>
</svg>
