<svg width="99" height="96" viewBox="0 0 99 96" fill="none" xmlns="http://www.w3.org/2000/svg">
<g clip-path="url(#clip0_744_794)">
<path fill-rule="evenodd" clip-rule="evenodd" d="M81.0256 0H17.4359C7.79487 0 0 7.79487 0 17.4359V78.5641C0 88.2051 7.79487 96 17.4359 96H81.0256C90.6667 96 98.4615 88.2051 98.4615 78.5641V17.4359C98.4615 7.79487 90.6667 0 81.0256 0ZM23.3848 67.2409V25.0256C23.3848 24.7384 23.5078 24.5743 23.795 24.5743C24.4925 24.5743 25.1489 24.5743 26.0925 24.5333C26.5994 24.5121 27.1173 24.5019 27.6516 24.4913L27.6519 24.4913L27.6521 24.4913C28.1554 24.4813 28.6732 24.4711 29.2104 24.4512C29.7833 24.43 30.3782 24.4197 30.995 24.4091C31.5708 24.3992 32.1656 24.389 32.7796 24.3692C34.0514 24.3281 35.2822 24.3281 36.513 24.3281C39.8771 24.3281 42.6668 24.7384 44.9643 25.5999C47.0155 26.2974 48.9027 27.4461 50.4617 28.964C51.7745 30.2768 52.8002 31.8768 53.4566 33.6409C54.0719 35.364 54.4002 37.1281 54.4002 38.9743C54.4002 42.5025 53.5796 45.4153 51.9386 47.7127C50.2976 50.0102 48.0002 51.7333 45.3335 52.7179C42.5437 53.7435 39.4668 54.1127 36.1027 54.1127H36.1024C35.118 54.1127 34.4617 54.1127 34.0514 54.0717C33.6412 54.0307 33.0668 54.0307 32.2873 54.0307V67.1999C32.3284 67.4871 32.1232 67.7332 31.836 67.7743H31.6719H23.8771C23.5489 67.7743 23.3848 67.6102 23.3848 67.2409ZM32.3284 32.5333V46.3179L32.4513 46.3267C32.979 46.3646 33.4714 46.3999 33.9284 46.3999H36.1027C37.7027 46.3999 39.3027 46.1538 40.8207 45.6615C42.1335 45.2922 43.2822 44.5127 44.1848 43.4871C45.0463 42.4615 45.4566 41.0666 45.4566 39.2615C45.4976 37.9897 45.1694 36.7179 44.513 35.6102C43.8155 34.5435 42.8309 33.723 41.6412 33.2717C40.1232 32.6563 38.4822 32.4102 36.8001 32.4512C35.7335 32.4512 34.7899 32.4512 34.0104 32.4922C33.1899 32.4512 32.6155 32.4922 32.3284 32.5333ZM60.3078 34.9539H67.4873C67.8975 34.9539 68.2257 35.2411 68.3488 35.6103C68.4719 35.9385 68.5539 36.2667 68.5949 36.6359C68.677 37.0462 68.759 37.4975 68.8001 37.9077C68.8411 38.359 68.8821 38.8513 68.8821 39.3847C70.1129 37.9488 71.5898 36.759 73.2719 35.8564C75.159 34.7898 77.3334 34.2564 79.5078 34.2564C79.795 34.2154 80.0411 34.4206 80.0821 34.7077V34.8718V42.8718C80.0821 43.2 79.877 43.3231 79.4257 43.3231C77.9488 43.2821 76.4308 43.4052 74.9949 43.7334C73.8052 43.9795 72.6565 44.3488 71.5488 44.8411C70.7693 45.2103 70.0308 45.7026 69.4565 46.359V67.2821C69.4565 67.6923 69.2924 67.8564 68.9232 67.8564H60.8411C60.5129 67.8975 60.2257 67.6923 60.1847 67.3641V67.2V44.4718V44.4716C60.1847 43.487 60.1847 42.4615 60.1437 41.3949C60.1232 40.8616 60.1129 40.3282 60.1026 39.7949C60.0924 39.2616 60.0821 38.7282 60.0616 38.1949C60.0616 37.2891 59.986 36.4211 59.9074 35.5183V35.5183L59.8975 35.4052C59.8565 35.2 59.9796 34.9949 60.1847 34.9539C60.1847 34.9129 60.2667 34.9129 60.3078 34.9539Z" fill="#5E4F64"/>
</g>
<defs>
<clipPath id="clip0_744_794">
<rect width="98.4615" height="96" fill="white"/>
</clipPath>
</defs>
</svg>
