<svg width="96" height="96" viewBox="0 0 96 96" fill="none" xmlns="http://www.w3.org/2000/svg">
<g clip-path="url(#clip0_744_381)">
<path fill-rule="evenodd" clip-rule="evenodd" d="M0 0H96V96H0V0ZM73.3866 80.4785C68.937 80.4785 66.4212 78.1577 64.4875 75.0004L57.1565 79.2594C59.8049 84.4922 65.2174 88.4846 73.5953 88.4846C82.1637 88.4846 88.5439 84.0351 88.5439 75.9132C88.5439 68.3794 84.2163 65.0286 76.5515 61.7417L74.2963 60.7756C70.4258 59.0994 68.7496 58.0038 68.7496 55.2975C68.7496 53.1078 70.4243 51.4316 73.0666 51.4316C75.657 51.4316 77.3256 52.5242 78.8723 55.2975L85.897 50.7871C82.9256 45.5604 78.8022 43.5642 73.0666 43.5642C65.0102 43.5642 59.8551 48.7147 59.8551 55.4804C59.8551 62.8252 64.1797 66.2994 70.6894 69.0728L72.9447 70.0404C77.059 71.84 79.5123 72.9356 79.5123 76.029C79.5123 78.6103 77.1245 80.4785 73.3866 80.4785ZM38.4258 80.4221C35.3264 80.4221 34.0372 78.2964 32.6201 75.7821L25.2769 80.2278C27.4041 84.7299 31.587 88.4678 38.8098 88.4678C46.8037 88.4678 52.2803 84.2164 52.2803 74.8754V44.0793H43.2593V74.7535C43.2593 79.2625 41.3896 80.4221 38.4258 80.4221Z" fill="#5E4F64"/>
</g>
<defs>
<clipPath id="clip0_744_381">
<rect width="96" height="96" fill="white"/>
</clipPath>
</defs>
</svg>
