<svg width="128" height="128" viewBox="0 0 128 128" fill="none" xmlns="http://www.w3.org/2000/svg">
<g clip-path="url(#clip0_804_2798)">
<path d="M63.5332 128L115.267 98.1334L95.5332 86.6667L75.2665 98.4C74.4665 98.9334 73.6665 98.4 73.6665 97.3334V69.6C73.6665 68.8 74.1999 68 74.7332 67.7334L98.7332 53.8667C99.5332 53.3334 100.333 53.8667 100.333 54.9334V78.4L120.067 89.8667V29.8667L63.5332 62.6667V128Z" fill="black"/>
<path d="M68.6 0V22.9333L88.8667 34.6667C89.6667 35.2 89.6667 36.2667 88.8667 36.5333L64.8667 50.4C64.0667 50.9333 63.2667 50.6667 62.7333 50.4L38.7333 36.5333C37.9333 36.2667 37.9333 34.9333 38.7333 34.6667L59 22.9333V0L7 29.8667L63.5333 62.6667L120.067 29.8667L68.6 0Z" fill="#808080"/>
<path d="M52.0667 98.4L31.8 86.6667L12.0667 98.1334L63.8 128V62.6667L7 29.8667V89.6L26.7333 78.1334V54.6667C26.7333 53.8667 27.8 53.3334 28.3333 53.6L52.3333 67.4667C53.1333 68 53.4 68.5334 53.4 69.3334V97.0667C53.6667 98.1334 52.8667 98.9334 52.0667 98.4Z" fill="#4C4C4C"/>
</g>
<defs>
<clipPath id="clip0_804_2798">
<rect width="128" height="128" fill="white"/>
</clipPath>
</defs>
</svg>
